<?xml version="1.0" encoding="utf-8"?>
<!-- Generator: Adobe Illustrator 27.0.0, SVG Export Plug-In . SVG Version: 6.00 Build 0)  -->
<svg version="1.1" id="Layer_1" xmlns="http://www.w3.org/2000/svg" xmlns:xlink="http://www.w3.org/1999/xlink" x="0px" y="0px"
	 viewBox="0 0 600 600" style="enable-background:new 0 0 600 600;" xml:space="preserve">
<style type="text/css">
	.st0{fill:#1A9C00;}
</style>
<g>
	<path class="st0" d="M-730.2-41c-0.3-0.2-0.6-0.4-1-0.5c-10.1-2.4-14.8-8.2-14.8-18.6c0-37.1,0-74.2,0-111.3c0-6,0.1-12-0.1-18
		c0-1.2-1-2.8-2-3.4c-11.3-6.7-14.9-17.9-9.1-29.8c8.1-16.7,16.3-33.4,24.4-50.1c0.6-1.2,1.1-2.5,1.9-4.2c-5.2-1.7-10.2-3.3-15.2-5
		c-5.4-1.8-6.3-3-6.3-8.7c0-8.1,0-16.2,0-24.4c0-5.5,1-6.7,6.1-8.4c4.7-1.6,9.5-2.9,14.2-4.8c1.4-0.6,2.9-2.1,3.6-3.5
		c3-6.7,5.8-13.5,8.4-20.3c0.6-1.5,0.7-3.6,0-5c-2.2-4.9-4.7-9.6-7.2-14.4c-1.7-3.2-1.2-5.9,1.3-8.5c6.3-6.2,12.6-12.5,18.8-18.8
		c2.8-2.9,5.7-3.1,9.1-1.3c4.6,2.4,9.2,4.9,14,7.1c1.3,0.6,3.3,0.6,4.7,0c6.9-2.7,13.8-5.6,20.6-8.6c1.4-0.6,2.8-2,3.3-3.3
		c1.7-4.4,2.9-9,4.6-13.5c0.9-2.4,2.4-4.5,3.7-6.7c11.5,0,23,0,34.4,0c1.7,3.8,4.3,7.4,5.1,11.4c1.7,8.2,5.4,13.4,14.2,15
		c4.3,0.8,8.3,3.3,12.2,5.5c2.3,1.3,4,1.2,6.2,0c4.5-2.5,9.1-4.7,13.6-7c3.3-1.7,6.1-1.3,8.8,1.4c6.1,6.2,12.3,12.4,18.5,18.6
		c2.8,2.8,3.3,5.7,1.5,9.1c-2.4,4.6-4.9,9.2-7.1,14c-0.6,1.4-0.6,3.6,0,5.1c2.6,6.9,5.4,13.6,8.4,20.3c0.6,1.5,2.1,3,3.6,3.6
		c4.9,1.9,9.9,3.5,14.9,5c3.8,1.1,5.4,3.6,5.4,7.5c-0.1,8.7,0,17.5,0,26.2c0,3.7-1.6,6.1-5.2,7.2c-5.3,1.6-10.6,3.5-16.3,5.3
		c0.7,1.5,1.2,2.8,1.9,4.1c8,16.4,16,32.7,23.9,49.1c6.3,13,3.3,23.3-8.9,31c-0.9,0.6-1.6,2.4-1.7,3.6c-0.1,8-0.1,16-0.1,24
		c0,34,0,68,0,101.9c0,13.8-2.9,17.8-15.8,22.1C-596.4-41-663.3-41-730.2-41z M-536-196.2c-10.5,7.8-20.9,7.4-31.2-0.2
		c-10.6,7.9-21.1,7.7-31.4,0c-10.6,7.8-21.1,7.7-31.4,0c-10.6,7.8-21,7.7-31.4,0c-10.5,7.8-21,7.7-31.3,0c-10.5,7.6-20.9,7.9-31.3,0
		c-2.2,1.3-4.2,3-6.5,3.7c-2.9,0.9-3.6,2.5-3.6,5.4c0.1,42,0.1,84,0.1,126c0,6.6,1.4,8,7.8,8c15.1,0,30.2,0,45.3,0c1.2,0,2.4,0,4,0
		c0-1.8,0-3.2,0-4.5c0.2-23,0.4-46,0.7-69c0.4-25.2,21-45.9,45.8-46.1c25.7-0.3,46.9,20.5,46.9,46.4c0,23-0.4,46-0.6,69
		c0,1.3,0,2.6,0,4.3c1.6,0,2.7,0,3.8,0c15.6,0,31.2,0,46.8,0c6.5,0,7.9-1.4,7.9-7.9c0-35.4,0-70.7,0-106.1c0-7.1,0.1-14.2-0.1-21.4
		c0-1.1-0.8-2.5-1.7-3.1C-530.2-193.4-533-194.7-536-196.2z M-629.6-295.1c-23.4,0-46.9,0.1-70.3-0.1c-6,0-9.7,2.2-12.3,7.7
		c-11,23.1-22.3,46-33.5,69c-0.5,1-1,2-1.4,3.1c-1.6,4.2-0.1,8.8,3.5,11.2c3.3,2.3,7.7,2,11-0.9c1.5-1.3,2.7-2.9,4.2-4.3
		c2.6-2.5,5.7-2.6,8.4-0.3c1,0.9,2,1.9,2.9,2.9c5.8,5.8,12.2,5.7,17.9-0.3c5.5-5.8,7.5-5.8,13.1-0.1c6.1,6.2,12.3,6.2,18.4,0
		c5.6-5.7,7.5-5.7,13.1,0.2c5.7,5.9,12.2,6,17.9,0.2c0.8-0.8,1.5-1.7,2.3-2.4c3-2.7,6-2.8,9-0.1c1.4,1.3,2.6,2.7,4,4
		c4.1,3.7,10.5,3.6,14.7-0.1c1.2-1.1,2.3-2.3,3.4-3.5c3.3-3.3,6.3-3.3,9.7,0c1.3,1.2,2.4,2.5,3.7,3.7c4,3.5,10.4,3.4,14.4-0.1
		c1.2-1.1,2.3-2.3,3.5-3.4c3.7-3.6,6.7-3.5,10.3,0.2c7.8,8.1,12.7,8.2,20.8,0.2c0.4-0.3,0.7-0.7,1.1-1.1c3.2-2.8,6.3-2.6,9.2,0.4
		c1.3,1.3,2.5,2.8,3.9,4c2.8,2.3,6,2.9,9.4,1.5c3.4-1.5,5.4-4.3,5.5-7.9c0.1-2.2-0.8-4.7-1.8-6.7c-11.2-23.2-22.7-46.4-33.8-69.7
		c-2.6-5.3-6.3-7.4-12.1-7.4C-583-295-606.3-295.1-629.6-295.1z M-544.7-373.9c-4.2-4.2-8.3-8-12.1-12.1c-1.7-1.8-2.9-1.6-4.8-0.6
		c-4.4,2.4-8.9,4.5-13.3,6.8c-2.6,1.4-5,1.3-7.4-0.2c-8.2-5.1-17-8.8-26.4-11c-3-0.7-4.8-2.4-5.6-5.3c-1.5-4.8-3.2-9.5-4.6-14.2
		c-0.6-2.1-1.6-2.7-3.7-2.7c-4.7,0.1-9.5,0.1-14.2,0c-2.2-0.1-3.4,0.5-4,2.8c-1.3,4.7-3,9.2-4.4,13.9c-0.9,3.1-2.7,4.9-5.9,5.6
		c-9.3,2.2-18,5.8-26.1,10.9c-2.7,1.7-5.3,1.6-8.1,0.1c-4.3-2.3-8.7-4.4-12.9-6.7c-1.8-1-3-1.1-4.5,0.6c-3.4,3.7-7.1,7-10.5,10.7
		c-0.7,0.8-1,2.7-0.6,3.7c2,4.5,4.4,9,6.7,13.4c1.5,2.9,1.2,5.5-0.1,8.5c-3.8,8.5-7.4,17.1-10.7,25.8c-1.1,3-2.5,5-5.6,5.9
		c-4.9,1.5-9.7,3.1-14.5,4.9c-1,0.4-2.2,1.8-2.2,2.7c-0.2,5.2-0.2,10.5,0,15.7c0,0.9,0.7,2.3,1.5,2.5c4.4,1.6,8.9,3,13.4,4.4
		c1.2-2.5,2.3-4.6,3.3-6.7c4-8.2,10.7-12.3,19.7-12.5c3.6-0.1,7.2-0.2,10.8,0c2.7,0.2,3.7-0.7,4-3.4c3.4-27.9,27-49.4,55.4-50.6
		c27.9-1.2,53.4,18.5,59.2,45.7c0.6,2.7,1,5.3,1.6,8.7c16.5-2,31.4-0.4,36.6,19c4.9-1.6,9.2-2.8,13.3-4.5c1-0.4,1.9-2.1,2-3.3
		c0.2-4.7,0-9.5,0.1-14.2c0.1-2.2-0.6-3.4-2.8-4c-4.4-1.2-8.7-2.9-13.2-4.2c-3.6-1-5.3-3.2-6.6-6.8c-3.1-8.5-6.6-16.9-10.4-25.1
		c-1.5-3.2-1.8-5.8-0.2-8.8C-549.9-363.4-547.4-368.5-544.7-373.9z M-596.4-53.5c0.1-0.7,0.2-1,0.2-1.4c0.2-24.1,0.6-48.2,0.6-72.3
		c0-4.4-1.2-9-2.9-13c-6.3-14.9-22.4-23.1-38.3-20c-15.6,3.1-27.2,17.2-27.5,33.9c-0.3,23-0.5,45.9-0.7,68.9c0,1.2,0,2.4,0,3.9
		C-641.9-53.5-619.3-53.5-596.4-53.5z M-584-307.3c-1.1-23.4-23.6-42.9-47.9-41.8c-23,1-44.6,21.7-43.6,41.8
		C-645.1-307.3-614.7-307.3-584-307.3z"/>
</g>
<g>
	<path class="st0" d="M289.9,410.1c-23.4,0-46,0-69,0c0.7,3,1.4,5.6,2,8.4c1.5,7.3-1.9,14.6-8.4,18.1c-6.5,3.6-14.9,2.8-19.7-2.8
		c-3.8-4.4-8.4-7-13.5-8.5c-10.4-3.1-20.8-6.1-31.4-8.3c-4.3-0.9-9,0.2-14.9,0.4c4.3,6.8,7.7,12.3,11.1,17.7
		c1.8,2.9,3.7,5.7,5.4,8.7c3.9,7,2.2,14.9-4.1,18.9c-6.3,4.1-14,2.6-18.9-4c-7.3-9.9-14.3-20-21.6-29.8c-1.4-1.8-3.9-3.4-6.1-3.9
		c-9.9-2.5-17.1-8-20-18.1c-1.6-5.5-3.1-11-4.5-16.6c-3.1-13,3.6-25.8,16.3-30.2c4-1.4,4.6-3.3,4.6-7C97,267.5,97,181.9,97.1,96.3
		c0-11,4.9-18.1,14.1-20.3c1.9-0.5,4-0.6,6-0.6c129.1,0,258.1,0,387.2,0c12.9,0,20.2,7.3,20.2,20.2c0,104.9,0,209.7,0,314.6
		c0,9.5-3.7,13.1-13.3,13.2c-1.6,0-3.1,0.2-4.7,0c-3.9-0.7-5.2,1.4-6.7,4.6c-1.6,3.4,0.1,4.8,2,6.6c11.4,11.4,11.4,14.2-0.1,25.7
		c-2.2,2.2-4.3,4.5-6.6,6.6c-4.9,4.4-10.6,4.4-15.5,0.1c-1.6-1.5-3.3-2.9-4.6-4.6c-2.4-3.4-5.3-4.1-8.6-1.6c-1.3,1-2.7,2.7-2.9,4.3
		c-0.5,2.9,0,5.9-0.2,8.8c-0.4,6.4-4.3,10.4-10.7,10.6c-5.7,0.2-11.5,0.2-17.2,0c-6.2-0.2-10.3-4.5-10.6-10.8c-0.1-2.3-0.3-4.7,0-7
		c0.4-3.6-0.8-5.4-4.4-6.8c-2.9-1.1-4.5-0.7-6.3,1.5c-1.7,2-3.6,3.8-5.6,5.6c-4.7,4.2-10.4,4.3-15.1,0c-4.2-3.9-8.3-8-12.2-12.2
		c-4.4-4.7-4.2-10.3,0-15.1c1.5-1.6,2.9-3.3,4.6-4.6c3.6-2.6,4.1-5.6,1.5-9c-0.9-1.2-2.6-2.1-4.1-2.7c-1.2-0.4-2.8-0.1-4.2-0.1
		c-11.5,0-13.9-1.9-15.9-13.3c-10.6,0-21.2,0-32.1,0c0,8.7,0,17.4,0,26.4c4.7,0,9.1,0.1,13.5,0c17.8-0.6,29.6,10.6,29.7,28.3
		c0,5.6,0,11.2,0,16.8c0,24.5-10.4,36.7-34.6,41.1c-21.2,3.8-41.7,1.2-62-5.2c-2.1-0.6-4.1-1.3-5.9-0.7c-2.9,0.8-5.8,2.3-8.8,2.4
		c-10.2,0.3-20.5,0.2-30.7,0.1c-6.4,0-7.9-1.6-7.9-8.1c0-23.9,0-47.8,0-71.8c0-6.3,1.7-8,7.9-8.1c10.4,0,20.8-0.2,31.2,0.1
		c2.3,0.1,4.6,1.7,6.9,2.7c0.6,0.3,1.1,1.1,1.7,1.3c8.8,2,18.7-5.7,18.7-14.7C291,417.4,290.3,413.9,289.9,410.1z M200.6,334.6
		c1.4,0,2.5,0,3.5,0c13,0.7,24.2,9.7,27.5,22.1c3.3,12.4-1.5,25.5-12.4,32.6c-2.7,1.8-3.3,3.1-2.5,6.3c0.9,3.6,3.2,3.1,5.6,3.1
		c20,0,40.1,0,60.1,0c1.5,0,3-0.2,4.4-0.2c1-14.4,7.4-18.8,21.2-14.8c7.1,2,12.8,6.2,17.2,12.1c0.9,1.1,2.1,2.8,3.3,2.8
		c11.6,0.2,23.2,0.1,34.7,0.1c2.7-12.4,2.7-12.4,23.2-14c3.8-7.3,3.8-7.3-1.7-12.8c-1-1-2-1.9-3-3c-4.6-5.1-4.7-10.8,0-15.8
		c3.7-3.9,7.6-7.8,11.5-11.5c5-4.7,10.7-4.6,15.8,0.1c1,0.9,2,2,3,3c5.5,5.5,5.5,5.5,13,1.5c0-3.7-0.1-7.6,0-11.5
		c0.2-6.1,4-10.3,10.1-10.7c6-0.3,12.1-0.4,18.2,0c6.3,0.4,9.8,4.2,10.2,10.6c0.2,2.8,0.2,5.6,0,8.4c-0.1,2.5,0.7,3.7,3,4.9
		c3.7,1.9,6.2,1.5,8.7-1.8c1.4-1.8,3.2-3.4,4.9-4.9c4.5-3.9,9.9-4.1,14.3-0.1c4.5,4.1,8.8,8.4,12.9,12.8c4.1,4.5,3.9,10.1-0.2,14.7
		c-2.1,2.3-4.4,4.4-6.5,6.7c-0.7,0.8-1.4,2.1-1.3,3.1c0.7,5.1,2.7,6.7,7.8,6.7c2,0,3.9,0,6,0c0-75.3,0-150.1,0-225
		c-135,0-269.7,0-404.5,0c0,65.2,0,130,0,195.4c7.5-2.1,15.4-2.3,21-7.7c9.7-9.3,19-19.1,28.2-28.9c1.5-1.6,2.3-4.4,2.6-6.7
		c1.2-8.8,7.1-15.1,15.1-15.8c8.9-0.8,15.8,4.1,18.3,13.1C196,317.5,198.2,325.8,200.6,334.6z M513.3,148.2c0-1.9,0-3.5,0-5
		c0-15.5,0-31.1,0-46.6c0-7.9-2.1-10-9.9-10c-128.4,0-256.8,0-385.2,0c-7.9,0-10,2.1-10,9.9c0,15.7,0,31.4,0,47c0,1.5,0,3,0,4.6
		C243.5,148.2,378.1,148.2,513.3,148.2z M271.3,447.3c0,18.2,0,35.9,0.1,53.6c0,1.2,1.2,3,2.2,3.3c22.4,8.2,45.1,12.2,68.8,6.5
		c13.9-3.4,20.7-11.7,20.8-26.1c0.1-6.7,0.1-13.3,0-20c-0.1-11-6.6-17.2-17.7-16.9c-5.9,0.2-11.8,0.4-17.7,0.4
		c-6.3,0.1-8.1-1.6-8.1-7.9c-0.1-9.2,0.1-18.3-0.1-27.5c-0.2-8.5-5.7-15.5-13.7-18.1c-2.3-0.7-4.9-0.8-8.1-1.4
		c1.3,6.7,2.4,12.3,3.5,18c4,20.8-4.5,32.5-25.5,35.2C274.4,446.7,273.1,447,271.3,447.3z M498.6,447.1c-6.6-6.6-14.3-11.8-9.2-24.2
		c5.1-12.5,14.5-10.2,23.6-10.7c0-5.7,0-10.7,0-15.6c-5.5-0.5-10.9-0.3-15.8-1.6c-6.1-1.6-6.5-8.2-8.7-13
		c-4.9-10.6,5.4-14.5,9.5-20.4c-3.7-3.9-7.2-7.7-11-11.8c-6.6,6.7-11.8,14-24,9.1c-12.5-5-10.5-14.3-10.9-23.7c-5.7,0-10.7,0-16.5,0
		c2.4,12.3-0.4,20.9-13.6,24.9c-11.1,3.3-14.6-5.7-20.8-10.1c-3.8,3.7-7.5,7.4-11.3,11.1c4.4,6.2,13.3,9.6,10.4,20.1
		c-3.6,13.4-12.3,17.2-24.9,14.4c0,6.1,0,11.2,0,16.3c7.8,1.4,16.3-2.3,21.5,7c6.8,12.1,3.4,20.9-7.2,27.7
		c4.3,4.2,7.9,7.8,11.6,11.5c13.1-11.6,13.8-11.5,19.5-10.2c13.6,3.3,17.7,12.2,14.8,25c6.1,0,11.2,0,16.6,0
		c0-9.7-1.4-18.4,10.8-23.6c12.6-5.3,17.4,3.2,23.9,8.9C491,454.5,494.6,451,498.6,447.1z M186.9,414.3c-7.5-28-15.1-56.2-22.4-83.5
		c-10.6,9.5-21.1,18.8-31.6,28.2c-0.6,0.6-1,2-0.8,2.8c4,14.5,8.1,28.9,11.9,42.1C158.8,407.4,172.7,410.8,186.9,414.3z
		 M121.1,363.6c-8.7,2.4-16.8,4.3-24.7,6.9c-7.7,2.6-11.1,9.9-9.1,17.9c1.2,4.8,2.5,9.6,3.8,14.3c2.2,7.7,8,12.3,15.9,10.9
		c8.8-1.5,17.3-4.2,26.3-6.4C129.2,392.5,125.3,378.4,121.1,363.6z M236,442.9c0,21.9,0,43.5,0,65c8.2,0,16,0,23.9,0
		c0-21.9,0-43.3,0-65C251.8,442.9,244.1,442.9,236,442.9z M177.7,307.4c-4.8,0.2-6.8,3.4-5.5,8.5c7.3,27.5,14.7,55.1,22.1,82.6
		c2.2,8.2,4.4,16.5,6.7,24.7c0.9,3.3,3.4,5,6.7,4.1c3.5-0.9,4.9-3.5,4.1-7.2c-0.3-1.2-0.6-2.4-0.9-3.6c-4.2-15.7-8.4-31.4-12.6-47.1
		c-5-18.6-9.9-37.1-14.9-55.7C182.5,310.3,181.3,307.4,177.7,307.4z M203.7,346.2c3,11.3,6,22.3,9,33.6c7-4,10.1-11.7,8.3-19.4
		C218.9,352,212.6,346.6,203.7,346.2z M116.8,423.3c7.1,9.8,13.8,19.2,20.7,28.5c0.6,0.9,2.5,0.8,3.8,1.2c0-1.4,0.6-3.1,0-4.1
		c-5.6-9.3-11.4-18.4-17.2-27.7C121.7,421.9,119.5,422.5,116.8,423.3z"/>
	<path class="st0" d="M351.7,169.2c2.5,2.9,4.6,4.5,5.6,6.6c3.7,8.5,7.2,17.1,10.6,25.8c1.1,2.9,2.7,4,5.7,4.2
		c9.1,0.5,18.3,1,27.4,2.1c2.4,0.3,5.8,2,6.4,3.9c0.6,1.9-1,5.4-2.7,7c-6.6,6.1-13.5,11.9-20.6,17.5c-3,2.3-3.4,4.5-2.4,7.9
		c2.4,8.5,4.2,17.1,6.4,25.7c0.7,3,1.3,6.5-2,7.7c-2.1,0.8-5.5,0.3-7.6-0.9c-7.7-4.3-15.2-9-22.6-13.9c-3.3-2.2-5.6-1.8-8.7,0.2
		c-7.4,4.9-14.9,9.6-22.6,13.9c-2.1,1.1-5.9,1.6-7.4,0.5c-1.6-1.2-2.3-4.9-1.8-7.3c1.7-8.8,3.9-17.6,6.3-26.2c1.1-3.7,0-5.6-2.7-7.8
		c-6.9-5.5-13.7-11.2-20.2-17.2c-1.8-1.6-3.3-4.7-3.1-7c0.3-3.4,3.6-4,6.8-4.2c9.1-0.6,18.3-1.4,27.4-1.9c2.9-0.2,4.4-1.3,5.4-4
		c3.4-8.7,6.8-17.3,10.6-25.8C346.9,173.7,349.2,172.1,351.7,169.2z M315,218.1c5.5,4.7,10.1,8.9,14.9,12.6c4,3,5.3,6.3,3.7,11.3
		c-1.8,5.9-3,12.1-4.6,19.2c6.3-3.9,11.7-7,16.8-10.5c4-2.7,7.4-2.9,11.5-0.1c5,3.5,10.5,6.5,16.9,10.5c-1.7-7.2-2.8-13.3-4.6-19.1
		c-1.6-5-0.3-8.2,3.7-11.3c4.9-3.7,9.4-7.9,14.9-12.6c-7.7-0.6-14.3-1.4-20.9-1.7c-4.2-0.2-6.5-2.1-7.9-5.9
		c-2.3-6.2-5-12.3-7.8-19.2c-2.8,6.9-5.5,13-7.8,19.2c-1.4,3.8-3.7,5.7-7.9,5.9C329.4,216.7,322.8,217.4,315,218.1z"/>
	<path class="st0" d="M437.7,245c-2.9,0.9-5.2,1.6-7.5,2.3c-3.4,1-6-0.3-7-3.5c-1.1-3.3,0.4-5.9,3.6-7c6.9-2.4,13.8-4.6,20.7-6.9
		c3.4-1.1,5.9,0.2,7.1,3.4c2.5,7,4.9,14.1,7.1,21.2c1,3.3-0.5,5.9-3.8,6.9c-3.2,1-5.5-0.6-6.7-3.5c-1-2.4-1.7-4.9-2.8-8.1
		c-1.2,2-2.1,3.4-2.9,4.8c-15.2,26.8-33.7,50.6-59.2,68.4c-25.9,18.1-55.1,26.6-86.4,28.3c-4.5,0.2-7.4-1.8-7.3-5.3
		c0.1-4,2.6-5.7,6.4-5.9c55.7-2.7,97.1-29.6,127.1-75.5c3.6-5.6,7-11.4,10.4-17.1C436.9,246.9,437.2,246.2,437.7,245z"/>
	<path class="st0" d="M281.6,214.3c-0.7,1-1.4,2.7-2.7,3.9c-3.1,2.9-6.5,5.3-9.4,8.3c-1.2,1.3-2,3.7-1.8,5.4c0.5,4,2.2,7.8,2.6,11.8
		c0.2,2.3-0.4,5.7-1.9,6.8c-1.6,1.1-5,0.5-7.1-0.4c-3.4-1.4-6.5-3.6-9.5-5.8c-2.7-2-4.8-1.7-7.4,0.1c-2.9,2.1-5.9,4.2-9.1,5.5
		c-2.3,0.9-5.9,1.6-7.5,0.4c-1.6-1.2-2-4.8-1.7-7.3c0.4-3.8,2-7.5,2.5-11.3c0.2-1.6-0.5-3.9-1.6-5c-2.9-3-6.6-5.2-9.4-8.3
		c-1.5-1.7-2.7-4.8-2.2-6.7c0.5-1.7,3.5-3,5.6-3.7c2.5-0.7,5.3-1,7.8-0.7c6.6,0.9,9.4-2.6,10.9-8.3c0.7-2.7,1.8-5.4,3.3-7.6
		c1.1-1.6,3.3-3.5,4.9-3.4c1.9,0.1,4.3,1.8,5.3,3.6c2.1,3.8,3.6,7.9,5,12c0.9,2.6,2.4,3.5,5.2,3.5c4.2,0,8.4,0.5,12.5,0.9
		C279.2,208.1,281.1,210,281.6,214.3z M240.1,233.5c5.5-4.7,10.7-4.1,16.2,0.1c-2.8-6.8-0.9-11.6,5-15.4c-7.3,0.4-11.4-2.7-13.1-9.7
		c-1.8,6.8-5.9,10.1-13.2,9.8C241.1,222.1,242.5,226.9,240.1,233.5z"/>
	<path class="st0" d="M201.4,214.5c-0.7,0.9-1.6,2.7-3,4c-3.1,2.9-6.5,5.3-9.4,8.3c-1.1,1.1-1.8,3.2-1.6,4.7
		c0.7,4.3,2.4,8.4,2.9,12.7c0.2,2.1-0.6,5.1-2.1,6.4c-1.3,1.1-4.3,0.6-6.3,0.1c-2-0.6-4-1.9-5.5-3.3c-5.8-5.4-11.2-4.9-16.9,0.1
		c-1.5,1.3-3.3,2.6-5.1,3.1c-2.2,0.5-5.3,1-6.7-0.1c-1.5-1.1-2.2-4.3-1.9-6.5c0.5-4.1,2.1-8.1,2.7-12.2c0.2-1.6-0.5-3.9-1.6-5.1
		c-2.9-3-6.6-5.2-9.3-8.3c-1.5-1.7-2.7-4.8-2.2-6.7c0.4-1.6,3.5-3,5.6-3.7c2.6-0.8,5.6-1,8.3-0.7c5.8,0.6,8.8-1.9,10.1-7.4
		c0.6-2.5,1.5-5.2,3-7.3c1.4-2,3.8-4.7,5.5-4.6c2.1,0.2,4.6,2.6,5.9,4.7c2,3.4,2.9,7.5,4.8,11c0.7,1.4,2.7,2.7,4.3,3
		c4.3,0.7,8.6,0.7,13,1.1C199.1,208.1,201.2,209.9,201.4,214.5z M154.9,218.4c6.9,3.5,7,8.9,5.2,15.3c5.5-5,10.6-4.1,16.3-0.2
		c-3.6-6.9-0.7-11.4,4.8-15.3c-7.5,0.6-11.3-2.9-13.1-9.7C166.2,215.2,162.3,218.8,154.9,218.4z"/>
	<path class="st0" d="M252.1,328.6c-0.5,1.7-0.4,2.8-1,3.4c-4.2,4.3-8.3,8.7-12.9,12.5c-1.1,0.9-5,0.2-6-1c-1.2-1.5-1.8-5.2-0.8-6.4
		c3.5-4.5,7.7-8.5,12-12.2c1.2-1,4-1,5.6-0.3C250.3,325.3,251.2,327.5,252.1,328.6z"/>
	<path class="st0" d="M264.6,353c-0.8,0.8-2.1,3.1-3.9,3.7c-4.6,1.7-9.5,2.8-14.3,3.9c-3.3,0.8-6-0.3-6.9-3.7c-1-3.6,0.8-6,4.3-7
		c4.6-1.3,9.2-2.6,13.9-3.6C261.6,345.4,264.6,347.9,264.6,353z"/>
	<path class="st0" d="M244.1,367.4c6.6,1.9,12.2,3,17.4,5.3c1.6,0.7,2.9,4.5,2.4,6.4c-0.4,1.6-3.8,3.8-5.5,3.5
		c-5.4-0.8-10.9-2.3-16-4.4c-1.6-0.7-3-4.3-2.8-6.3C240,370.1,242.7,368.7,244.1,367.4z"/>
	<path class="st0" d="M416.4,136c-20.3,0-40.7,0.1-61,0c-7.9,0-14.1-4.8-16.5-12.1c-2.3-7-0.3-15,5.9-19.1c3.3-2.2,7.7-3.8,11.6-3.9
		c40-0.3,80.1-0.2,120.1-0.1c10.6,0,18.3,7.6,18.3,17.6c0,10.1-7.6,17.5-18.3,17.6C456.5,136.1,436.4,136.1,416.4,136
		C416.4,136.1,416.4,136.1,416.4,136z M416.1,124.9c7.6,0,15.2,0,22.8,0c12.4,0,24.8,0,37.2,0c4.8,0,7.5-2.4,7.5-6.4
		c0-3.9-2.7-6.3-7.5-6.5c-0.5,0-0.9,0-1.4,0c-38.9,0-77.8,0-116.8,0c-1.5,0-3.2,0.1-4.6,0.6c-3.6,1.4-4.9,4.3-3.7,7.9
		c1.2,3.7,4.3,4.4,7.8,4.4C377,124.9,396.6,124.9,416.1,124.9z"/>
	<path class="st0" d="M171.9,118.4c0,9.1-7.6,16.6-16.6,16.6c-9.1-0.1-16.6-7.7-16.5-16.7c0.1-8.9,7.4-16.2,16.4-16.3
		C164.3,101.8,171.9,109.4,171.9,118.4z M161.4,119.7c0-0.7,0-1.5,0.1-2.2c-2-1.4-3.8-3.7-6-4.1c-3.1-0.6-5.3,1.7-5.3,4.9
		c-0.1,3.2,2,5.6,5.1,5.2C157.4,123.3,159.3,121.1,161.4,119.7z"/>
	<path class="st0" d="M198.2,102c9.1-0.1,16.7,7.4,16.8,16.4c0,8.9-7.3,16.4-16.1,16.6c-9,0.2-16.8-7.1-17-16.2
		C181.6,109.8,189.1,102.1,198.2,102z M199.4,112.4c-0.7,0-1.5,0-2.2,0c-1.4,2-3.6,4-3.9,6.1c-0.4,3,2,5.2,5.2,5.1
		c3.2-0.1,5.6-2.3,5-5.3C203.2,116.3,200.9,114.4,199.4,112.4z"/>
	<path class="st0" d="M258,118.4c0,9.1-7.5,16.6-16.6,16.6c-9.1,0-16.5-7.5-16.4-16.7c0.1-9,7.3-16.2,16.3-16.3
		C250.5,101.9,258,109.3,258,118.4z M235.5,117.4c0,0.8,0,1.5,0,2.3c2,1.4,3.9,3.7,6.1,4c3.1,0.5,5.2-1.9,5.2-5.1
		c0-3.3-2.1-5.6-5.2-5.1C239.4,113.8,237.5,116,235.5,117.4z"/>
	<path class="st0" d="M444.4,368c19.8,0.1,36.1,16.5,36,36.3c-0.2,19.9-16.5,36.1-36.3,36.1c-20.1-0.1-36.2-16.5-36.1-36.6
		C408.1,383.9,424.4,367.9,444.4,368z M419.2,404c0,13.9,11.3,25.3,25.1,25.2c13.7-0.1,24.9-11.3,24.9-24.9
		c0.1-13.6-11.1-25-24.7-25.1C430.5,379.1,419.2,390.1,419.2,404z"/>
</g>
<g>
	<path class="st0" d="M-572-482c-0.7-0.8-1.6-1.5-2.2-2.4c-2.6-3.6-0.3-8.4,4.3-8.8c3-0.2,6-0.1,9-0.1c34.8,0,69.6,0,104.4,0
		c8.8,0,12.4-3.7,12.4-12.6c0-112.1,0-224.2,0-336.3c0-8.9-3.6-12.6-12.4-12.6c-106.4,0-212.8,0-319.2,0c-8.9,0-12.6,3.6-12.6,12.4
		c0,112.2,0,224.5,0,336.7c0,8.6,3.7,12.4,12.2,12.4c58.3,0,116.5,0,174.8,0c1,0,2,0,3,0c3.1-0.2,6.1,0.2,7.5,3.6
		c1.4,3.4-0.6,5.6-2.9,7.7c-62.9,0-125.8,0-188.6,0c-13.2-4.3-17.3-13.7-17.3-27c0.3-110.6,0.1-221.2,0.1-331.8c0-1.2,0-2.5,0-3.7
		c0.2-9.8,5.9-17.4,15.2-20.6c0.7-0.2,1.3-0.6,2-0.9c110.8,0,221.6,0,332.4,0c13,4.2,17.3,13.4,17.3,26.7
		c-0.2,110.7-0.1,221.4-0.1,332.2c0,1.5,0.1,3,0,4.5c-0.5,7.9-4.1,14-11,18c-1.9,1.1-4,1.8-6.1,2.7C-490.6-482-531.3-482-572-482z"
		/>
	<path class="st0" d="M-465.4-673.8c0,44.9,0,89.7,0,134.6c0,11.5-5.7,19.7-15.7,22.3c-2.6,0.7-5.4,0.8-8.1,0.8
		c-84.6,0-169.2,0-253.7,0c-12.2,0-20.6-5.7-23.2-16.1c-0.6-2.3-0.7-4.7-0.7-7.1c0-89.9,0-179.7,0-269.6c0-14.4,8.6-23.1,23.1-23.1
		c85.1,0,170.2,0,255.2,0c14.7,0,23.1,8.7,23.1,23.5C-465.4-763.6-465.4-718.7-465.4-673.8z M-476.6-673.7c0-44.4,0-88.7,0-133.1
		c0-1.4,0-2.8-0.1-4.1c-0.4-5.5-3.7-8.9-9.2-9.6c-1.4-0.2-2.7-0.2-4.1-0.2c-84.1,0-168.2,0-252.2,0c-1.4,0-2.7,0-4.1,0.2
		c-5.5,0.6-8.8,4.1-9.2,9.6c-0.1,1.1-0.1,2.2-0.1,3.4c0,89.1,0,178.2,0,267.3c0,1.4,0,2.8,0.1,4.1c0.5,4.3,3.6,7.7,7.8,8.4
		c1.7,0.3,3.5,0.4,5.2,0.4c84.2,0,168.4,0,252.6,0c10,0,13.2-3.3,13.2-13.3C-476.6-585-476.6-629.4-476.6-673.7z"/>
	<path class="st0" d="M-549.8-622.5c-2.4-0.9-4.8-1.9-7.1-2.8c-10.6-4-21.1-8.4-30-15.7c-17.4-14.3-17.8-40.7-0.7-55.5
		c18.5-16,51.2-18.1,71-4.5c7.3,5.1,12.5,11.5,12.1,21.1c-0.4,13.2-12,21.7-24.6,18.1c-3.2-0.9-6.2-2.7-9.4-3.6
		c-3.5-1.1-7.2-1.7-10.8-2.5c-0.1,0.5-0.3,1-0.4,1.5c3.8,1.5,7.5,3,11.3,4.4c9.1,3.4,17.4,8.2,23.6,15.9c15,18.8,9.6,45.4-12,58.3
		c-16.2,9.7-33.4,10.1-50.8,3.8c-6.1-2.2-12.3-5.2-17.5-9c-11.1-8.2-12.5-22.3-3.9-31.4c7.3-7.8,19-8.5,28.9-1.3
		C-563.9-621.2-557.4-619.5-549.8-622.5z M-555-591.1c8.7-0.1,17.4-2.4,25-8c16.7-12.2,16.6-34.3-0.3-46.2c-3.2-2.3-6.9-4-10.5-5.5
		c-7.1-3.1-14.3-5.8-21.4-8.8c-5.1-2.1-6.3-7.4-2.8-11.6c0.9-1.1,2.2-2.1,3.4-2.9c8.1-5.5,16.7-5.9,25.7-2.5
		c3.1,1.2,6.2,2.7,9.3,3.8c3.3,1.1,6.5,1,8.8-2c2.4-3,3.1-6.6,1.2-9.8c-1.6-2.7-3.9-5.3-6.4-7.1c-15.7-10.9-42.9-9.3-57,3.6
		c-3.3,3-6.1,7.1-7.5,11.3c-4,11.6,0.1,22.7,11.4,29.6c7.9,4.8,16.8,8.1,25.2,12.1c3.7,1.8,7.7,3.1,10.9,5.5
		c5.7,4.1,5.6,10.8,0.1,15.2c-1.8,1.4-4,2.6-6.2,3.2c-10.1,3-19.7,1.8-28.5-4.2c-1.9-1.3-4-2.7-6.1-3.5c-4.3-1.6-8.3-0.3-10.6,3.1
		c-2.3,3.3-2.3,7.8,0.5,11.1c1.8,2,3.9,3.9,6.3,5.2C-575.7-594.1-566-591.3-555-591.1z"/>
	<path class="st0" d="M-686.6-644.3c0,12.9,0,25.3,0,37.6c0,2.9,0,5.8-0.4,8.6c-1.7,10.7-10.8,17.8-21.9,17.2
		c-10.1-0.6-18.6-9-18.7-19.4c-0.3-20.1-0.1-40.2-0.1-60.4c0-3.9,2.3-6.2,5.5-6.2c3.2,0,5.6,2.4,5.6,6.2c0.1,10.5,0.1,21,0.1,31.5
		c0,8.9,0,17.7,0,26.6c0.1,6.4,3.6,10.4,9.2,10.5c5.7,0.1,9.5-4,9.6-10.6c0.1-15,0-30,0-45c0-6.2,1.6-7.8,7.7-7.8
		c8.4-0.1,16.7,0,25.1-0.2c28.5-0.9,50.6-24.4,49.7-52.6c-0.9-25.9-22.2-47.1-49.4-48.4c-13.9-0.7-27.9-0.3-41.9-0.1
		c-6.6,0.1-9.9,3.8-9.9,10.5c-0.1,18.6,0,37.2,0,55.9c0,1.5,0,3-0.4,4.5c-0.7,2.8-2.8,4.1-5.6,3.9c-2.9-0.2-4.6-1.8-5.1-4.6
		c-0.2-1.2-0.1-2.5-0.1-3.7c0-18.2,0-36.5,0-54.7c0-14.7,8.2-23,22.9-23c14.6,0,29.2-0.4,43.8,0.5c30.1,1.9,54.7,27,56.9,57.3
		c2.2,29.5-18.5,57.9-47.7,64c-9.9,2.1-20.3,1.5-30.5,2.1C-683.6-644.3-684.9-644.3-686.6-644.3z"/>
	<path class="st0" d="M-697.8-706.3c0-8.4,0-16.7,0-25.1c0-4.5,1.8-6.6,6.2-6.6c9.3-0.1,18.7-0.3,28,0.3
		c14.1,0.8,26.4,12.4,28.8,26.3c3,17.7-10.4,35.4-28.4,36.7c-9.4,0.6-18.9,0.4-28.4,0.4c-4.1,0-6.1-2.2-6.1-6.4
		C-697.8-689.3-697.7-697.8-697.8-706.3C-697.8-706.3-697.8-706.3-697.8-706.3z M-686.4-685.9c7.1,0,14.1,0.2,21-0.1
		c10.5-0.4,19.2-9,19.9-19.3c0.7-9.5-6.7-19.6-16.6-20.9c-7.9-1-16.1-0.2-24.3-0.2C-686.4-713-686.4-699.6-686.4-685.9z"/>
</g>
</svg>
