<?xml version="1.0" encoding="utf-8"?>
<!-- Generator: Adobe Illustrator 27.0.0, SVG Export Plug-In . SVG Version: 6.00 Build 0)  -->
<svg version="1.1" id="Layer_1" xmlns="http://www.w3.org/2000/svg" xmlns:xlink="http://www.w3.org/1999/xlink" x="0px" y="0px"
	 viewBox="0 0 600 600" style="enable-background:new 0 0 600 600;" xml:space="preserve">
<style type="text/css">
	.st0{fill:#1A9C00;}
</style>
<g>
	<path class="st0" d="M178.3,533c-0.4-0.2-0.8-0.5-1.2-0.6c-12.2-2.9-18-10-18-22.5c0-45,0-90.1,0-135.1c0-7.3,0.1-14.6-0.1-21.8
		c0-1.4-1.2-3.4-2.4-4.1c-13.7-8.1-18.1-21.7-11.1-36.2c9.8-20.3,19.8-40.5,29.6-60.8c0.7-1.5,1.4-3,2.4-5.1c-6.3-2.1-12.4-4-18.5-6
		c-6.5-2.1-7.6-3.6-7.6-10.5c0-9.9,0-19.7,0-29.6c0-6.6,1.2-8.2,7.4-10.2c5.7-1.9,11.6-3.6,17.2-5.8c1.8-0.7,3.5-2.5,4.3-4.3
		c3.6-8.1,7-16.4,10.2-24.7c0.7-1.8,0.8-4.4,0-6.1c-2.6-5.9-5.7-11.7-8.7-17.5c-2-3.9-1.5-7.2,1.6-10.3c7.6-7.6,15.3-15.2,22.8-22.9
		c3.4-3.5,7-3.7,11.1-1.6c5.6,3,11.2,6,17,8.6c1.6,0.7,4.1,0.7,5.7,0c8.4-3.3,16.8-6.8,25.1-10.4c1.6-0.7,3.4-2.4,4-4
		c2.1-5.3,3.5-11,5.5-16.3c1.1-2.9,3-5.4,4.5-8.2c13.9,0,27.9,0,41.8,0c2.1,4.6,5.2,9,6.2,13.8c2.1,9.9,6.6,16.3,17.2,18.2
		c5.2,1,10.1,4,14.8,6.7c2.8,1.5,4.8,1.4,7.5,0c5.4-3,11-5.7,16.5-8.5c4-2.1,7.5-1.5,10.7,1.7c7.4,7.6,14.9,15.1,22.5,22.5
		c3.4,3.4,4,6.9,1.8,11.1c-3,5.6-6,11.2-8.6,17c-0.8,1.7-0.7,4.3,0,6.1c3.2,8.3,6.6,16.6,10.2,24.7c0.8,1.8,2.6,3.6,4.3,4.3
		c5.9,2.3,12,4.2,18,6c4.7,1.4,6.6,4.4,6.5,9.1c-0.1,10.6-0.1,21.2,0,31.8c0,4.5-1.9,7.4-6.3,8.8c-6.5,2-12.9,4.2-19.8,6.5
		c0.8,1.8,1.5,3.4,2.3,5c9.7,19.9,19.4,39.7,29.1,59.6c7.7,15.8,4,28.3-10.8,37.7c-1.2,0.7-2,2.9-2,4.3c-0.2,9.7-0.1,19.4-0.1,29.1
		c0,41.2,0,82.5,0,123.7c0,16.7-3.5,21.6-19.2,26.8C340.6,533,259.4,533,178.3,533z M413.9,344.6c-12.7,9.4-25.4,9-37.8-0.2
		c-12.9,9.5-25.6,9.3-38,0c-12.9,9.4-25.6,9.3-38.1,0c-12.8,9.4-25.5,9.3-38.1,0c-12.8,9.5-25.4,9.4-38,0c-12.7,9.2-25.4,9.5-38,0.1
		c-2.7,1.6-5.1,3.6-7.9,4.5c-3.5,1.1-4.4,3-4.3,6.5c0.1,51,0.1,101.9,0.1,152.9c0,8,1.6,9.7,9.5,9.7c18.3,0,36.6,0,54.9,0
		c1.5,0,2.9,0,4.8,0c0-2.2,0-3.9,0-5.5c0.3-27.9,0.4-55.8,0.8-83.7c0.4-30.6,25.5-55.6,55.6-56c31.2-0.3,56.9,24.9,56.9,56.3
		c0,27.9-0.5,55.8-0.8,83.7c0,1.6,0,3.2,0,5.2c1.9,0,3.3,0,4.6,0c18.9,0,37.8,0,56.8,0c7.9,0,9.5-1.7,9.5-9.6c0-42.9,0-85.8,0-128.7
		c0-8.6,0.1-17.3-0.1-25.9c0-1.3-1-3-2.1-3.7C421,348.1,417.6,346.5,413.9,344.6z M300.3,224.6c-28.5,0-56.9,0.1-85.4-0.1
		c-7.3-0.1-11.8,2.7-14.9,9.3c-13.4,28-27.1,55.8-40.7,83.7c-0.6,1.2-1.3,2.4-1.7,3.7c-1.9,5.2-0.2,10.6,4.2,13.6
		c4,2.8,9.3,2.4,13.4-1.1c1.8-1.6,3.3-3.5,5.1-5.2c3.2-3,6.9-3.1,10.2-0.3c1.3,1.1,2.4,2.3,3.6,3.5c7.1,7,14.9,6.9,21.7-0.4
		c6.7-7,9.1-7,15.9-0.1c7.5,7.6,14.9,7.6,22.4-0.1c6.8-6.9,9.1-6.9,15.9,0.2c6.9,7.2,14.8,7.3,21.7,0.2c1-1,1.8-2,2.8-2.9
		c3.6-3.3,7.3-3.4,10.9-0.1c1.7,1.5,3.1,3.3,4.8,4.8c5,4.4,12.8,4.4,17.8-0.1c1.5-1.3,2.7-2.8,4.1-4.2c4-4,7.7-4,11.8,0
		c1.5,1.5,2.9,3.1,4.5,4.5c4.9,4.2,12.6,4.2,17.4-0.1c1.5-1.3,2.8-2.8,4.2-4.1c4.5-4.4,8.1-4.3,12.5,0.2c9.4,9.8,15.4,9.9,25.2,0.3
		c0.4-0.4,0.8-0.9,1.3-1.3c3.8-3.4,7.6-3.2,11.2,0.5c1.6,1.6,3,3.4,4.8,4.9c3.4,2.8,7.3,3.6,11.4,1.8c4.1-1.8,6.5-5.2,6.6-9.6
		c0.1-2.7-1-5.6-2.2-8.2c-13.6-28.2-27.5-56.3-41-84.5c-3.1-6.5-7.6-9-14.7-9C356.9,224.7,328.6,224.6,300.3,224.6z M403.4,129
		c-5.1-5-10.1-9.7-14.7-14.7c-2-2.2-3.6-2-5.9-0.8c-5.3,2.9-10.8,5.5-16.1,8.3c-3.1,1.6-6,1.6-9-0.3c-10-6.2-20.7-10.7-32.1-13.4
		c-3.6-0.9-5.8-2.9-6.8-6.4c-1.8-5.8-3.8-11.5-5.5-17.3c-0.7-2.5-2-3.3-4.5-3.2c-5.7,0.2-11.5,0.2-17.3,0c-2.7-0.1-4.1,0.7-4.9,3.4
		c-1.6,5.7-3.7,11.2-5.4,16.9c-1.1,3.7-3.3,5.9-7.1,6.8c-11.3,2.7-21.8,7.1-31.7,13.2c-3.3,2.1-6.4,2-9.8,0.1
		c-5.2-2.8-10.5-5.3-15.7-8.1c-2.2-1.2-3.6-1.3-5.5,0.7c-4.1,4.4-8.6,8.5-12.7,13c-0.9,1-1.2,3.3-0.7,4.5c2.5,5.5,5.3,10.9,8.1,16.2
		c1.9,3.5,1.5,6.6-0.2,10.3c-4.6,10.3-9,20.8-13,31.3c-1.4,3.6-3.1,6-6.7,7.2c-5.9,1.8-11.8,3.7-17.6,5.9c-1.2,0.4-2.6,2.1-2.7,3.3
		c-0.3,6.4-0.2,12.7,0,19.1c0,1.1,0.9,2.7,1.8,3.1c5.3,2,10.8,3.6,16.2,5.4c1.5-3,2.8-5.6,4.1-8.1c4.9-9.9,13-14.9,23.9-15.2
		c4.4-0.1,8.8-0.2,13.2,0c3.2,0.2,4.4-0.8,4.8-4.1c4.1-33.8,32.8-60,67.2-61.5C331,143.1,362,167,369.1,200
		c0.7,3.2,1.2,6.5,1.9,10.6c20-2.5,38.1-0.5,44.5,23.1c5.9-1.9,11.1-3.4,16.1-5.4c1.2-0.5,2.3-2.6,2.4-4c0.3-5.8,0-11.5,0.2-17.3
		c0.1-2.7-0.7-4.1-3.4-4.9c-5.4-1.5-10.6-3.5-16-5.1c-4.3-1.3-6.5-3.9-8-8.2c-3.7-10.3-8.1-20.5-12.7-30.5c-1.8-3.8-2.2-7-0.2-10.7
		C397.1,141.7,400.1,135.6,403.4,129z M340.6,517.8c0.1-0.8,0.3-1.3,0.3-1.7c0.3-29.2,0.8-58.5,0.7-87.7c0-5.3-1.4-10.9-3.5-15.8
		c-7.6-18.1-27.2-28.1-46.4-24.2c-19,3.8-33.1,20.9-33.4,41.1c-0.4,27.9-0.6,55.8-0.9,83.6c0,1.5,0,2.9,0,4.7
		C285.4,517.8,312.8,517.8,340.6,517.8z M355.6,209.9c-1.3-28.4-28.6-52.1-58.1-50.8c-27.9,1.3-54.1,26.3-52.9,50.8
		C281.5,209.9,318.4,209.9,355.6,209.9z"/>
</g>
</svg>
