<?xml version="1.0" encoding="utf-8"?>
<!-- Generator: Adobe Illustrator 27.0.0, SVG Export Plug-In . SVG Version: 6.00 Build 0)  -->
<svg version="1.1" id="Layer_1" xmlns="http://www.w3.org/2000/svg" xmlns:xlink="http://www.w3.org/1999/xlink" x="0px" y="0px"
	 viewBox="0 0 600 600" style="enable-background:new 0 0 600 600;" xml:space="preserve">
<style type="text/css">
	.st0{fill:#1A9C00;}
</style>
<g>
	<path class="st0" d="M1900.2,1019c-5.4,0-9.9,0-14.5,0c-25.2,0-50.4,0-75.6,0c-10.6,0-15.1-4.6-15.2-15.3c0-56.4,0-112.9,0-169.3
		c0-10.8,4.5-15.4,15-15.4c123.3,0,246.6,0,369.8,0c10.5,0,15,4.6,15,15.4c0,56.4,0,112.9,0,169.3c0,10.6-4.6,15.2-15.2,15.2
		c-60.8,0-121.6,0-182.4,0.2c-3.9,0-8.2,1.3-11.5,3.4c-23.1,14.1-46,28.5-68.9,42.9c-5.3,3.3-10.5,5.3-16.2,1.4
		c-5.7-3.8-6.2-9.3-5.2-15.5C1897.3,1040.9,1898.6,1030.4,1900.2,1019z M1923.7,1031.5c18.5-11.6,35.8-22.7,53.5-33.2
		c4.2-2.5,9.6-4.1,14.5-4.2c56.9-0.3,113.7-0.2,170.6-0.2c2.4,0,4.8,0,7.2,0c0-50.4,0-99.9,0-149.5c-116.7,0-233,0-349.2,0
		c0,49.9,0,99.4,0,149.5c2.4,0,4.4,0,6.5,0c28.7,0,57.5-0.1,86.2,0c9.9,0,15,6,13.6,15.7C1925.8,1016.5,1924.8,1023.2,1923.7,1031.5
		z"/>
	<path class="st0" d="M1700.3,669c-2.9,0-5.1,0-7.4,0c-27.5,0-55,0-82.5,0c-10.7,0-15.3-4.6-15.3-15.2c0-56.5,0-112.9,0-169.4
		c0-10.9,4.6-15.4,15.7-15.4c122.9,0,245.8,0,368.8,0c11.1,0,15.5,4.4,15.5,15.6c0,56.3,0,112.5,0,168.8c0,11.4-4.4,15.6-16.1,15.6
		c-60.4,0-120.8-0.1-181.3,0.2c-4.1,0-8.6,1.4-12.1,3.5c-22.9,14-45.7,28.3-68.4,42.6c-5.3,3.3-10.4,5.5-16.2,1.7
		c-5.9-3.9-6.4-9.5-5.3-16C1697.5,690.6,1698.7,680.1,1700.3,669z M1620.4,644c2.3,0,4.3,0,6.4,0c28.7,0,57.5,0,86.2,0
		c10.2,0,15.3,6.2,13.9,16.1c-1,6.8-1.9,13.6-3,21.2c2.4-1.4,4.1-2.4,5.8-3.4c15.4-9.6,30.8-19.1,46-28.9c5.5-3.5,11-5.1,17.5-5.1
		c56.5,0.2,112.9,0.1,169.4,0.1c2.4,0,4.8,0,7.1,0c0-50.5,0-99.9,0-149.6c-116.6,0-232.9,0-349.3,0
		C1620.4,544.4,1620.4,593.9,1620.4,644z"/>
	<path class="st0" d="M2107.5,769c0-11.9,0-22.9,0-33.9c0-1.9,0-3.7,0-5.5c-15.7-7.2-25-18.7-24.9-36c0.1-17,9.3-28.3,24.7-35.2
		c0-21.2,0-42.4,0-64.4c-2.4,0-4.6,0-6.8,0c-22.1,0-44.2,0-66.2,0c-8.2,0-13.5-4.2-14.3-11c-0.8-7.2,4.4-13.8,12-13.8
		c29.4-0.2,58.7-0.2,88.1,0c7.7,0.1,12.3,5.7,12.3,14.3c0.1,23.3,0,46.6,0,70c0,3,0.1,5.2,3.5,6.9c13.9,6.9,21.5,18.5,21.3,34
		c-0.1,15.8-8.1,27.2-22.3,34c-0.7,0.4-1.4,0.8-2.5,1.4c0,15.7,0,31.5,0,47.3c0,12.9-4,17-16.7,17c-88.9,0-177.9,0-266.8,0
		c-1.7,0-3.3,0.1-5-0.1c-6.7-0.7-11.6-6.2-11.5-12.6c0.1-6.2,4.9-11.4,11.3-12.2c2.3-0.3,4.6-0.1,6.9-0.1c82.9,0,165.8,0,248.7,0
		C2101.8,769,2104.3,769,2107.5,769z M2120,681.6c-6.7,0-12.3,5.4-12.5,12.1c-0.2,7,5.4,12.8,12.3,12.8c6.9,0,12.7-5.8,12.5-12.7
		C2132.2,687.2,2126.5,681.6,2120,681.6z"/>
	<path class="st0" d="M1684.2,821.2c30.9,15.3,31.1,55.3,0.3,70.5c3.4,15.3,17.8,26.9,34.5,27.2c12.1,0.2,24.2,0,36.2,0.1
		c9,0,14.8,5,14.7,12.5c0,7.5-5.8,12.5-14.9,12.4c-15-0.2-30.2,1-44.9-1.2c-26.1-3.8-42.8-19.9-50.3-45.2c-1.1-3.6-2.6-5.8-6.2-7.6
		c-13.7-6.8-21-18.3-21-33.6c0-15.2,7.4-26.7,21.1-33.5c3.3-1.6,5-3.5,5.9-7c7.5-28.1,31.3-46.6,60.4-46.9c11.9-0.1,23.7-0.1,35.6,0
		c8.5,0.1,14.2,5.1,14.2,12.5c0,7.4-5.6,12.4-14.2,12.5c-11.9,0.1-23.7-0.1-35.6,0.1C1703.1,794.2,1689.6,804.3,1684.2,821.2z
		 M1670.4,844.1c-6.6-0.2-12.5,5.3-12.8,12c-0.3,6.6,5.2,12.6,11.9,12.9c7,0.4,12.9-5.3,13-12.3
		C1682.6,849.9,1677.2,844.2,1670.4,844.1z"/>
	<path class="st0" d="M2080,891.2c-2.2,4.5-4.3,8.7-6.4,12.8c-5.1-1.9-9.6-3.8-14.3-5.3c-1.9-0.6-4.4-1.2-6.1-0.5
		c-2.6,1.1-5.7,3-6.5,5.2c-0.5,1.4,2.4,5.2,4.6,6.2c5.9,2.6,12.3,3.9,18.2,6.4c11,4.6,15.2,14.2,11.9,25.5c-1.8,6.3-6,10.5-12,12.6
		c-15.1,5.3-28.9,1.6-42.6-6.3c2.4-5,4.5-9.4,6.6-13.9c4.8,2.1,9,4.1,13.4,5.8c2.3,0.9,4.8,1.5,7.3,1.6c4.1,0.2,9.3,1.1,10.5-4.1
		c1.2-5.4-4.1-6.5-7.9-8c-3.9-1.5-7.9-2.5-11.8-3.9c-11.9-4.3-16-10.1-15.1-21.2c0.8-10.3,8.3-18.1,19.1-20.2
		C2060.2,881.8,2070.2,885.2,2080,891.2z"/>
	<path class="st0" d="M2019.9,891.2c-2.3,4.6-4.4,8.8-6.6,13.2c-3.8-1.7-7.1-3.6-10.6-4.6c-3.3-1-7-1.9-10.3-1.3
		c-2.3,0.4-5.2,2.9-5.8,5.1c-0.4,1.5,2.1,5,4.1,5.9c5.7,2.5,11.8,3.9,17.6,6.2c11.8,4.6,16.4,14.2,13,26.1
		c-1.9,6.5-6.3,10.7-12.6,12.8c-14.9,4.9-28.5,1.3-42.1-6.6c2.3-4.9,4.5-9.3,6.5-13.6c6.4,2.4,12.2,5.1,18.3,6.7
		c4.7,1.2,11.3,2.4,12.9-3.6c1.7-6.2-5.1-6.9-9.3-8.5c-4.1-1.6-8.3-2.7-12.3-4.3c-7.2-2.9-12.6-7.2-13-15.8
		c-0.5-9.3,2.5-17.1,10.9-21.5C1994.3,879.8,2007.1,883.7,2019.9,891.2z"/>
	<path class="st0" d="M1950.9,931.8c4.3,2.7,8.2,5.1,11.9,7.4c-1.8,10.4-18.4,18.3-29.9,16.9c-16-2-28.3-16-30-34.3
		c-1.5-16.1,8.6-32.2,23.2-36.9c14.6-4.7,28.5,0.5,36.2,14c-3.7,2.8-7.5,5.6-11.6,8.7c-1-1.3-1.7-2.4-2.6-3.5
		c-6.8-8.5-18.7-7.9-24.9,1.2c-5.4,8-5.2,21.1,0.4,29C1930.9,944.6,1942.1,943.7,1950.9,931.8z"/>
	<path class="st0" d="M1796.3,533.3c0.7-0.3,0.9-0.4,1.1-0.4c14.2-0.9,14.2-0.9,19.8,12.1c3.4,7.8,6.8,15.6,10.2,23.5
		c0.2,0.4,0.4,0.7,1.2,2c1.3-2.7,2.5-4.9,3.5-7.2c3.6-8.2,7.3-16.3,10.5-24.7c1.7-4.6,4.2-6.6,9.2-5.9c2.8,0.4,5.8,0.1,9.1,0.1
		c0,24.6,0,48.8,0,73.4c-4.5,0-9,0-14.1,0c0-13.2,0-26.5,0-39.7c-0.6-0.2-1.1-0.3-1.7-0.5c-3.5,8-6.8,16-10.5,23.8
		c-0.9,1.9-3,3.9-4.9,4.5c-3.3,1.1-5.6-0.4-7.1-4.1c-3.2-8.1-6.8-15.9-11.6-23.8c0,13.1,0,26.1,0,39.7c-5.3,0-9.7,0-14.7,0
		C1796.3,581.9,1796.3,557.7,1796.3,533.3z"/>
	<path class="st0" d="M1671.6,606.1c0-24.2,0-48.3,0-72.8c4.6,0,9.2,0,14.4,0c0,9,0,18.1,0,27.7c8.7,0,16.9,0,25.9,0
		c0-9.1,0-18.3,0-27.8c5.3,0,9.8,0,14.6,0c0,24.4,0,48.6,0,73.1c-4.8,0-9.3,0-14.5,0c0-10,0-19.6,0-29.6c-8.8,0-16.8,0-25.5,0
		c0,9.7,0,19.4,0,29.5C1681.2,606.1,1676.6,606.1,1671.6,606.1z"/>
	<path class="st0" d="M1754,547.7c-7.1,0-13.1,0-19.6,0c0-5,0-9.6,0-14.6c17.8,0,35.4,0,53.5,0c0,4.6,0,9.2,0,14.5
		c-6.2,0-12.4,0-19.1,0c0,19.8,0,39,0,58.6c-5.1,0-9.6,0-14.8,0C1754,587,1754,567.7,1754,547.7z"/>
	<path class="st0" d="M1874.2,533c4.9,0,9.3,0,14.5,0c0,19.4,0,38.6,0,58.3c10.5,0,20.4,0,30.9,0c0,5.1,0,9.7,0,14.8
		c-14.9,0-29.9,0-45.3,0C1874.2,581.9,1874.2,557.8,1874.2,533z"/>
</g>
<g>
	<path class="st0" d="M-75.6-436c2.4,1,4.9,1.8,7.1,3.1c6.7,4.1,10.7,10.1,11,18c0.2,6.5,0.2,13,0.1,19.5c-0.1,4.7-3,7.8-7.2,8
		c-4.2,0.1-7.5-3.2-7.7-7.9c-0.2-5.9,0-11.7-0.1-17.6c-0.1-5.3-2.9-8.1-8.2-8.1c-61.3,0-122.5,0-183.8,0c-0.5,0-1,0.1-2,0.2
		c0,1.3,0,2.6,0,3.9c0,13.4,0,26.7,0,40.1c0,14.1-9.4,23.5-23.4,23.6c-13.1,0.1-26.2,0-39.3,0c-1.5,0-3,0-4.8,0
		c-0.1,1.6-0.2,3-0.2,4.3c0,90.5,0,180.9,0,271.4c0,7.5,2.4,9.9,9.8,9.9c80.7,0,161.5,0,242.2,0c7.5,0,9.8-2.3,9.8-9.9
		c0-6.3,0-12.7,0-19.5c-1.9,0-3.5,0-5.1,0c-61.9,0-123.8,0-185.7,0c-12.7,0-18.3-5.6-18.3-18.2c0-30.2,0-60.4,0-90.6
		c0-11.4,5.8-17.2,17.3-17.2c62,0,124,0,186.1,0c1.7,0,3.4,0,5.7,0c0-1.8,0-3.2,0-4.7c0-31.9,0-63.9,0-95.8c0-1.7,0.1-3.5,0.5-5.2
		c0.9-3.4,4.2-5.6,7.6-5.4c3.5,0.3,6.3,2.9,6.7,6.4c0.2,1.5,0.1,3,0.1,4.5c0,31.7,0,63.4,0,95.1c0,1.5,0,3,0,4.8
		c1.9,0.1,3.4,0.2,5,0.2c9.2,0.3,15.3,6.2,15.3,15.4c0.1,31.7,0.1,63.4,0,95.1c0,9.3-6.3,15.3-15.6,15.6c-1.4,0-2.7,0-4.5,0
		c-0.1,1.4-0.2,2.6-0.2,3.8c0,6.2,0.1,12.5-0.1,18.7c-0.4,12.3-9.9,21.6-22.2,21.8c-11.1,0.1-22.2,0-33.3,0c-70.8,0-141.5,0-212.3,0
		c-11.7,0-20.5-6.3-23.2-16.8c-0.6-2.5-0.8-5.2-0.8-7.8c0-93.6,0-187.2-0.1-280.7c0-4,1.2-7.1,4.1-9.9c21.4-21.3,42.7-42.7,64.1-64
		c1.5-1.5,3.2-2.7,4.8-4.1C-209.4-436-142.5-436-75.6-436z M-266.3-112.2c71.4,0,142.6,0,214,0c0-32,0-63.7,0-95.7
		c-71.4,0-142.6,0-214,0C-266.3-175.9-266.3-144.1-266.3-112.2z M-281.6-409.1c-13.7,13.6-27.2,27.2-40.7,40.6
		c11.5,0,23.3,0.2,35-0.1c3.3-0.1,5.5-2.8,5.6-6.1C-281.4-386.2-281.6-397.8-281.6-409.1z"/>
	<path class="st0" d="M-270.1-293.9c7,7.3,13.8,14.2,20.4,21.3c1.3,1.4,2.6,3.1,3.2,4.9c1.1,3.3-0.6,6.7-3.5,8.3
		c-3,1.7-6.4,1.2-9.2-1.6c-6.2-6.3-12.3-12.7-18.5-19.1c-2.7-2.8-5.4-5.5-8-8.4c-3.2-3.5-3.4-7.4-0.3-10.7c8.9-9.4,17.9-18.7,27-28
		c3.1-3.1,7.5-3,10.4-0.2c3,2.8,3.2,7.4,0.1,10.7c-6.2,6.6-12.6,13.1-18.9,19.7C-268.1-296-268.9-295.1-270.1-293.9z"/>
	<path class="st0" d="M-136.5-293.9c-7.3-7.6-14.4-15-21.5-22.3c-2.3-2.4-3.5-5.4-1.9-8.2c1.1-2,3.5-4.1,5.7-4.6
		c2-0.4,5.1,0.6,6.6,2.1c9.1,9,18,18.3,26.8,27.6c3.1,3.3,3,7.4-0.1,10.7c-8.8,9.2-17.6,18.3-26.5,27.4c-3.2,3.3-7.6,3.4-10.7,0.5
		c-3.1-3-3.2-7.5,0.1-11C-151.1-278.9-144-286.2-136.5-293.9z"/>
	<path class="st0" d="M-179.2-321c-0.4,0.9-0.9,2.6-1.8,4c-11.3,18-22.7,36-34.1,54c-2.8,4.4-7,5.7-10.8,3.4
		c-3.9-2.3-4.7-6.9-1.9-11.4c11.4-18.1,22.9-36.2,34.3-54.3c2.4-3.8,5.6-5,9.2-3.7C-181.2-327.9-179.1-324.9-179.2-321z"/>
	<path class="st0" d="M-64.8-368.1c4.2,0.1,7.3,3.2,7.3,7.4c0,4.1-3.3,7.4-7.3,7.4c-4.2,0-7.7-3.5-7.5-7.7
		C-72.2-365-68.9-368.2-64.8-368.1z"/>
	<path class="st0" d="M-136.1-124.2c-10-0.2-18-3.3-24.5-9.7c-3.8-3.7-4.1-7.9-1.1-11.2c3.1-3.3,7.4-3.3,11.2,0.3
		c4.5,4.2,9.7,6.2,15.7,5.3c2.2-0.3,4.5-1.5,6.2-3c2.4-2.1,2.3-5.1-0.4-7.1c-2.3-1.7-4.9-2.9-7.5-4c-4-1.7-8.1-3.2-12.1-4.9
		c-7.3-3-11.4-8.3-11.8-16.2c-0.4-8.1,3.3-14.2,10.3-18.1c10.6-6,24.7-3.1,33.8,4.7c3.1,2.7,3.3,7,0.8,10.1c-2.4,3-6.6,3.7-10.1,1.4
		c-4-2.7-8.2-4.8-13.2-4.2c-1.6,0.2-3.2,0.6-4.5,1.4c-3.2,2-2.9,5.6,0.7,7.1c5.2,2.2,10.4,4.1,15.6,6.3c7.6,3.3,13.5,8.2,14.9,16.9
		c1.8,11.8-7.2,22.8-19.9,24.4C-133.8-124.4-135.4-124.3-136.1-124.2z"/>
	<path class="st0" d="M-179.1-165c0,7,0.1,14,0,20.9c-0.2,15.7-13.8,24.1-27.8,17.1c-2.4-1.2-4.7-2.8-6.8-4.5
		c-3.3-2.7-3.8-7.2-1.4-10.4c2.5-3.3,6.6-3.9,10.3-1.5c1.4,0.9,2.6,1.9,4,2.7c4.4,2.4,6.6,1.2,6.7-3.8c0.1-4.4,0-8.7,0-13.1
		c0-9.8,0-19.7,0-29.5c0-5.6,2.8-8.7,7.5-8.7c4.6,0,7.5,3.3,7.5,8.8C-179-179.7-179.1-172.3-179.1-165z"/>
</g>
<g>
	<path class="st0" d="M173.9,371.7c-45.9-35.9-48.2-105.9-0.2-143.8c-3.1-2.8-6.2-5.5-9.2-8.4c-25.4-25.5-33-63.9-19.3-97.3
		c13.6-33.3,46.2-55.3,82.2-55.4c47.8-0.1,95.7-0.1,143.5,0c38.6,0,72,23.2,85,58.8c13,35.8,2.4,74.8-27.1,99.8
		c-0.9,0.7-1.7,1.5-3,2.6c22.9,18.5,35.3,42.4,35.5,71.7c0.2,20.7-6.4,39.4-19.3,55.6c-15,18.9-34.6,30.1-58.6,33.3
		c-23.7,3.2-45.2-2.7-65.7-16.9c0,3.2,0,5.2,0,7.2c0,21,0.1,41.9,0,62.9c-0.2,50-36.1,88.1-86,91.2c-45.5,2.8-88.5-34-92.7-79.4
		C136,420.3,148,393.4,173.9,371.7z M281.6,103.4c-21.2,0-41.9-1.5-62.3,0.4c-27.7,2.6-46.9,29-44.7,58.1c2,26.3,25.4,47.9,52.1,48
		c16.6,0.1,33.1,0,49.7,0c1.6,0,3.3-0.2,5.1-0.4C281.6,173.8,281.6,138.5,281.6,103.4z M318.4,103.4c0,35.2,0,70.7,0,106.7
		c2.5,0,4.5,0,6.6,0c16-0.1,32-0.1,48-0.2c27.1-0.2,50.5-21.9,52.3-48.5c1.9-29.3-17.2-55-45.2-57.7c-20.2-1.9-40.7-0.7-61-0.9
		C319,102.8,318.8,103,318.4,103.4z M281.9,246.4c-18.7,0-36.7-0.1-54.8,0c-27.1,0.1-50.6,21.9-52.4,48.4
		c-2,29.5,17.3,55.2,45.6,57.9c20,1.9,40.3,0.6,60.5,0.7c0.3,0,0.6-0.4,1.1-0.7C281.9,317.5,281.9,282.4,281.9,246.4z M281.3,389.8
		c-19.1,0-38.1-0.7-57.1,0.2c-28.1,1.4-49.7,25.3-49.6,53.6c0.1,27.5,21.6,51.3,48.3,53.3c29.4,2.2,55.4-16.9,58.1-45.4
		C282.8,431.4,281.3,410.9,281.3,389.8z M372.1,246.4c-30.4,0-54.2,23.6-54.1,53.7c0.1,29.7,24.3,53.8,53.9,53.7
		c29.7-0.1,53.6-24.3,53.5-54C425.3,270.1,401.7,246.4,372.1,246.4z"/>
</g>
<g>
	<path class="st0" d="M-730.2-41c-0.3-0.2-0.6-0.4-1-0.5c-10.1-2.4-14.8-8.2-14.8-18.6c0-37.1,0-74.2,0-111.3c0-6,0.1-12-0.1-18
		c0-1.2-1-2.8-2-3.4c-11.3-6.7-14.9-17.9-9.1-29.8c8.1-16.7,16.3-33.4,24.4-50.1c0.6-1.2,1.1-2.5,1.9-4.2c-5.2-1.7-10.2-3.3-15.2-5
		c-5.4-1.8-6.3-3-6.3-8.7c0-8.1,0-16.2,0-24.4c0-5.5,1-6.7,6.1-8.4c4.7-1.6,9.5-2.9,14.2-4.8c1.4-0.6,2.9-2.1,3.6-3.5
		c3-6.7,5.8-13.5,8.4-20.3c0.6-1.5,0.7-3.6,0-5c-2.2-4.9-4.7-9.6-7.2-14.4c-1.7-3.2-1.2-5.9,1.3-8.5c6.3-6.2,12.6-12.5,18.8-18.8
		c2.8-2.9,5.7-3.1,9.1-1.3c4.6,2.4,9.2,4.9,14,7.1c1.3,0.6,3.3,0.6,4.7,0c6.9-2.7,13.8-5.6,20.6-8.6c1.4-0.6,2.8-2,3.3-3.3
		c1.7-4.4,2.9-9,4.6-13.5c0.9-2.4,2.4-4.5,3.7-6.7c11.5,0,23,0,34.4,0c1.7,3.8,4.3,7.4,5.1,11.4c1.7,8.2,5.4,13.4,14.2,15
		c4.3,0.8,8.3,3.3,12.2,5.5c2.3,1.3,4,1.2,6.2,0c4.5-2.5,9.1-4.7,13.6-7c3.3-1.7,6.1-1.3,8.8,1.4c6.1,6.2,12.3,12.4,18.5,18.6
		c2.8,2.8,3.3,5.7,1.5,9.1c-2.4,4.6-4.9,9.2-7.1,14c-0.6,1.4-0.6,3.6,0,5.1c2.6,6.9,5.4,13.6,8.4,20.3c0.6,1.5,2.1,3,3.6,3.6
		c4.9,1.9,9.9,3.5,14.9,5c3.8,1.1,5.4,3.6,5.4,7.5c-0.1,8.7,0,17.5,0,26.2c0,3.7-1.6,6.1-5.2,7.2c-5.3,1.6-10.6,3.5-16.3,5.3
		c0.7,1.5,1.2,2.8,1.9,4.1c8,16.4,16,32.7,23.9,49.1c6.3,13,3.3,23.3-8.9,31c-0.9,0.6-1.6,2.4-1.7,3.6c-0.1,8-0.1,16-0.1,24
		c0,34,0,68,0,101.9c0,13.8-2.9,17.8-15.8,22.1C-596.4-41-663.3-41-730.2-41z M-536-196.2c-10.5,7.8-20.9,7.4-31.2-0.2
		c-10.6,7.9-21.1,7.7-31.4,0c-10.6,7.8-21.1,7.7-31.4,0c-10.6,7.8-21,7.7-31.4,0c-10.5,7.8-21,7.7-31.3,0c-10.5,7.6-20.9,7.9-31.3,0
		c-2.2,1.3-4.2,3-6.5,3.7c-2.9,0.9-3.6,2.5-3.6,5.4c0.1,42,0.1,84,0.1,126c0,6.6,1.4,8,7.8,8c15.1,0,30.2,0,45.3,0c1.2,0,2.4,0,4,0
		c0-1.8,0-3.2,0-4.5c0.2-23,0.4-46,0.7-69c0.4-25.2,21-45.9,45.8-46.1c25.7-0.3,46.9,20.5,46.9,46.4c0,23-0.4,46-0.6,69
		c0,1.3,0,2.6,0,4.3c1.6,0,2.7,0,3.8,0c15.6,0,31.2,0,46.8,0c6.5,0,7.9-1.4,7.9-7.9c0-35.4,0-70.7,0-106.1c0-7.1,0.1-14.2-0.1-21.4
		c0-1.1-0.8-2.5-1.7-3.1C-530.2-193.4-533-194.7-536-196.2z M-629.6-295.1c-23.4,0-46.9,0.1-70.3-0.1c-6,0-9.7,2.2-12.3,7.7
		c-11,23.1-22.3,46-33.5,69c-0.5,1-1,2-1.4,3.1c-1.6,4.2-0.1,8.8,3.5,11.2c3.3,2.3,7.7,2,11-0.9c1.5-1.3,2.7-2.9,4.2-4.3
		c2.6-2.5,5.7-2.6,8.4-0.3c1,0.9,2,1.9,2.9,2.9c5.8,5.8,12.2,5.7,17.9-0.3c5.5-5.8,7.5-5.8,13.1-0.1c6.1,6.2,12.3,6.2,18.4,0
		c5.6-5.7,7.5-5.7,13.1,0.2c5.7,5.9,12.2,6,17.9,0.2c0.8-0.8,1.5-1.7,2.3-2.4c3-2.7,6-2.8,9-0.1c1.4,1.3,2.6,2.7,4,4
		c4.1,3.7,10.5,3.6,14.7-0.1c1.2-1.1,2.3-2.3,3.4-3.5c3.3-3.3,6.3-3.3,9.7,0c1.3,1.2,2.4,2.5,3.7,3.7c4,3.5,10.4,3.4,14.4-0.1
		c1.2-1.1,2.3-2.3,3.5-3.4c3.7-3.6,6.7-3.5,10.3,0.2c7.8,8.1,12.7,8.2,20.8,0.2c0.4-0.3,0.7-0.7,1.1-1.1c3.2-2.8,6.3-2.6,9.2,0.4
		c1.3,1.3,2.5,2.8,3.9,4c2.8,2.3,6,2.9,9.4,1.5c3.4-1.5,5.4-4.3,5.5-7.9c0.1-2.2-0.8-4.7-1.8-6.7c-11.2-23.2-22.7-46.4-33.8-69.7
		c-2.6-5.3-6.3-7.4-12.1-7.4C-583-295-606.3-295.1-629.6-295.1z M-544.7-373.9c-4.2-4.2-8.3-8-12.1-12.1c-1.7-1.8-2.9-1.6-4.8-0.6
		c-4.4,2.4-8.9,4.5-13.3,6.8c-2.6,1.4-5,1.3-7.4-0.2c-8.2-5.1-17-8.8-26.4-11c-3-0.7-4.8-2.4-5.6-5.3c-1.5-4.8-3.2-9.5-4.6-14.2
		c-0.6-2.1-1.6-2.7-3.7-2.7c-4.7,0.1-9.5,0.1-14.2,0c-2.2-0.1-3.4,0.5-4,2.8c-1.3,4.7-3,9.2-4.4,13.9c-0.9,3.1-2.7,4.9-5.9,5.6
		c-9.3,2.2-18,5.8-26.1,10.9c-2.7,1.7-5.3,1.6-8.1,0.1c-4.3-2.3-8.7-4.4-12.9-6.7c-1.8-1-3-1.1-4.5,0.6c-3.4,3.7-7.1,7-10.5,10.7
		c-0.7,0.8-1,2.7-0.6,3.7c2,4.5,4.4,9,6.7,13.4c1.5,2.9,1.2,5.5-0.1,8.5c-3.8,8.5-7.4,17.1-10.7,25.8c-1.1,3-2.5,5-5.6,5.9
		c-4.9,1.5-9.7,3.1-14.5,4.9c-1,0.4-2.2,1.8-2.2,2.7c-0.2,5.2-0.2,10.5,0,15.7c0,0.9,0.7,2.3,1.5,2.5c4.4,1.6,8.9,3,13.4,4.4
		c1.2-2.5,2.3-4.6,3.3-6.7c4-8.2,10.7-12.3,19.7-12.5c3.6-0.1,7.2-0.2,10.8,0c2.7,0.2,3.7-0.7,4-3.4c3.4-27.9,27-49.4,55.4-50.6
		c27.9-1.2,53.4,18.5,59.2,45.7c0.6,2.7,1,5.3,1.6,8.7c16.5-2,31.4-0.4,36.6,19c4.9-1.6,9.2-2.8,13.3-4.5c1-0.4,1.9-2.1,2-3.3
		c0.2-4.7,0-9.5,0.1-14.2c0.1-2.2-0.6-3.4-2.8-4c-4.4-1.2-8.7-2.9-13.2-4.2c-3.6-1-5.3-3.2-6.6-6.8c-3.1-8.5-6.6-16.9-10.4-25.1
		c-1.5-3.2-1.8-5.8-0.2-8.8C-549.9-363.4-547.4-368.5-544.7-373.9z M-596.4-53.5c0.1-0.7,0.2-1,0.2-1.4c0.2-24.1,0.6-48.2,0.6-72.3
		c0-4.4-1.2-9-2.9-13c-6.3-14.9-22.4-23.1-38.3-20c-15.6,3.1-27.2,17.2-27.5,33.9c-0.3,23-0.5,45.9-0.7,68.9c0,1.2,0,2.4,0,3.9
		C-641.9-53.5-619.3-53.5-596.4-53.5z M-584-307.3c-1.1-23.4-23.6-42.9-47.9-41.8c-23,1-44.6,21.7-43.6,41.8
		C-645.1-307.3-614.7-307.3-584-307.3z"/>
</g>
<g>
	<path class="st0" d="M-162.2-598.3c-18.8,0-37,0-55.4,0c0.6,2.4,1.1,4.5,1.6,6.7c1.2,5.9-1.5,11.7-6.7,14.6
		c-5.2,2.9-11.9,2.3-15.8-2.2c-3-3.5-6.7-5.6-10.9-6.8c-8.3-2.5-16.7-4.9-25.2-6.7c-3.5-0.7-7.3,0.1-12,0.3
		c3.4,5.5,6.2,9.9,8.9,14.2c1.5,2.3,3,4.6,4.3,7c3.1,5.7,1.7,11.9-3.3,15.2c-5.1,3.3-11.3,2.1-15.2-3.2c-5.8-7.9-11.5-16-17.4-23.9
		c-1.1-1.5-3.1-2.7-4.9-3.2c-8-2-13.7-6.4-16.1-14.5c-1.3-4.4-2.5-8.9-3.6-13.4c-2.5-10.4,2.9-20.7,13.1-24.3
		c3.2-1.1,3.7-2.7,3.7-5.6c-0.1-68.8-0.1-137.5,0-206.3c0-8.8,3.9-14.5,11.3-16.3c1.6-0.4,3.2-0.4,4.8-0.4c103.7,0,207.4,0,311.1,0
		c10.3,0,16.2,5.9,16.2,16.2c0,84.2,0,168.5,0,252.7c0,7.6-3,10.5-10.7,10.6c-1.2,0-2.5,0.2-3.7,0c-3.1-0.5-4.2,1.2-5.4,3.7
		c-1.3,2.7,0.1,3.8,1.6,5.3c9.2,9.2,9.2,11.4-0.1,20.7c-1.8,1.8-3.5,3.6-5.3,5.3c-3.9,3.6-8.5,3.6-12.4,0.1
		c-1.3-1.2-2.7-2.3-3.7-3.7c-2-2.7-4.3-3.3-6.9-1.3c-1.1,0.8-2.1,2.2-2.4,3.5c-0.4,2.3,0,4.7-0.2,7.1c-0.3,5.1-3.5,8.4-8.6,8.5
		c-4.6,0.2-9.2,0.2-13.8,0c-5-0.2-8.2-3.7-8.5-8.7c-0.1-1.9-0.2-3.8,0-5.6c0.4-2.9-0.6-4.4-3.5-5.4c-2.3-0.8-3.6-0.6-5.1,1.2
		c-1.4,1.6-2.9,3.1-4.5,4.5c-3.8,3.4-8.4,3.5-12.1,0c-3.4-3.1-6.7-6.4-9.8-9.8c-3.5-3.8-3.4-8.3,0-12.1c1.2-1.3,2.3-2.7,3.7-3.7
		c2.9-2.1,3.3-4.5,1.2-7.2c-0.7-1-2.1-1.7-3.3-2.1c-1-0.3-2.2-0.1-3.3-0.1c-9.3,0-11.2-1.6-12.8-10.7c-8.5,0-17,0-25.8,0
		c0,7,0,14,0,21.2c3.7,0,7.3,0.1,10.9,0c14.3-0.5,23.8,8.5,23.9,22.7c0,4.5,0,9,0,13.5c0,19.7-8.4,29.5-27.8,33.1
		c-17,3.1-33.5,0.9-49.8-4.2c-1.7-0.5-3.3-1-4.8-0.6c-2.3,0.7-4.7,1.9-7.1,1.9c-8.2,0.2-16.5,0.1-24.7,0.1c-5.1,0-6.3-1.3-6.3-6.5
		c0-19.2,0-38.4,0-57.7c0-5.1,1.4-6.5,6.4-6.5c8.4,0,16.7-0.1,25.1,0.1c1.9,0.1,3.7,1.4,5.6,2.2c0.5,0.2,0.9,0.9,1.4,1
		c7,1.6,15.1-4.6,15-11.8C-161.4-592.4-161.9-595.2-162.2-598.3z M-234-658.9c1.1,0,2,0,2.8,0c10.4,0.6,19.4,7.8,22.1,17.8
		c2.7,9.9-1.2,20.5-9.9,26.2c-2.2,1.4-2.7,2.5-2,5.1c0.7,2.9,2.5,2.5,4.5,2.5c16.1,0,32.2,0,48.3,0c1.2,0,2.4-0.1,3.5-0.2
		c0.8-11.6,6-15.1,17-11.9c5.7,1.6,10.3,5,13.8,9.7c0.7,0.9,1.7,2.2,2.6,2.3c9.3,0.2,18.6,0.1,27.9,0.1c2.2-10,2.2-10,18.6-11.3
		c3-5.8,3-5.8-1.4-10.2c-0.8-0.8-1.6-1.6-2.4-2.4c-3.7-4.1-3.8-8.7,0-12.7c3-3.2,6.1-6.3,9.3-9.3c4-3.8,8.6-3.7,12.7,0
		c0.8,0.8,1.6,1.6,2.4,2.4c4.4,4.4,4.4,4.4,10.4,1.2c0-3-0.1-6.1,0-9.2c0.2-4.9,3.2-8.3,8.1-8.6c4.8-0.3,9.7-0.3,14.6,0
		c5,0.3,7.9,3.4,8.2,8.5c0.1,2.2,0.2,4.5,0,6.7c-0.1,2,0.5,3,2.4,3.9c3,1.5,5,1.2,7-1.4c1.1-1.5,2.6-2.7,4-4c3.6-3.2,8-3.3,11.5-0.1
		c3.6,3.3,7.1,6.7,10.3,10.3c3.3,3.6,3.1,8.1-0.2,11.8c-1.7,1.9-3.6,3.5-5.2,5.4c-0.6,0.6-1.2,1.7-1.1,2.5c0.5,4.1,2.1,5.3,6.3,5.3
		c1.6,0,3.2,0,4.8,0c0-60.5,0-120.6,0-180.7c-108.4,0-216.7,0-325,0c0,52.4,0,104.5,0,157c6-1.7,12.3-1.8,16.8-6.2
		c7.8-7.5,15.3-15.4,22.7-23.2c1.2-1.3,1.8-3.5,2.1-5.4c1-7.1,5.7-12.1,12.1-12.7c7.1-0.6,12.7,3.3,14.7,10.5
		C-237.6-672.6-235.9-666-234-658.9z M17.3-808.7c0-1.6,0-2.8,0-4c0-12.5,0-25,0-37.4c0-6.3-1.7-8-7.9-8c-103.2,0-206.3,0-309.5,0
		c-6.3,0-8.1,1.7-8.1,7.9c0,12.6,0,25.2,0,37.8c0,1.2,0,2.4,0,3.7C-199.5-808.7-91.4-808.7,17.3-808.7z M-177.2-568.3
		c0,14.6,0,28.9,0.1,43.1c0,0.9,0.9,2.4,1.8,2.7c18,6.6,36.3,9.8,55.3,5.2c11.1-2.7,16.6-9.4,16.7-21c0.1-5.4,0-10.7,0-16.1
		c-0.1-8.8-5.3-13.8-14.2-13.5c-4.7,0.1-9.5,0.3-14.2,0.4c-5,0.1-6.5-1.3-6.5-6.3c-0.1-7.4,0.1-14.7-0.1-22.1
		c-0.2-6.8-4.6-12.5-11-14.5c-1.9-0.6-3.9-0.7-6.5-1.1c1,5.4,1.9,9.9,2.8,14.4c3.2,16.7-3.6,26.1-20.5,28.3
		C-174.7-568.8-175.7-568.6-177.2-568.3z M5.5-568.5C0.2-573.8-6-578-1.9-588c4.1-10,11.7-8.2,18.9-8.6c0-4.6,0-8.6,0-12.6
		c-4.4-0.4-8.7-0.2-12.7-1.3c-4.9-1.3-5.2-6.6-7-10.4c-3.9-8.5,4.3-11.6,7.6-16.4c-2.9-3.1-5.8-6.2-8.8-9.5
		c-5.3,5.4-9.5,11.2-19.3,7.3c-10-4-8.5-11.5-8.7-19c-4.5,0-8.6,0-13.3,0c2,9.9-0.3,16.8-10.9,20c-8.9,2.7-11.7-4.6-16.7-8.1
		c-3.1,3-6.1,6-9.1,8.9c3.5,5,10.7,7.7,8.4,16.2c-2.9,10.8-9.9,13.8-20,11.6c0,4.9,0,9,0,13.1c6.2,1.1,13.1-1.9,17.3,5.6
		c5.4,9.7,2.8,16.8-5.8,22.3c3.4,3.4,6.4,6.3,9.3,9.2c10.5-9.3,11.1-9.3,15.7-8.2c10.9,2.6,14.2,9.8,11.9,20.1c4.9,0,9,0,13.4,0
		c0-7.8-1.1-14.8,8.7-18.9c10.1-4.3,14,2.6,19.2,7.2C-0.7-562.6,2.3-565.4,5.5-568.5z M-245-594.9c-6-22.5-12.1-45.1-18-67.1
		c-8.5,7.6-17,15.1-25.4,22.7c-0.5,0.4-0.8,1.6-0.6,2.2c3.2,11.6,6.5,23.2,9.6,33.8C-267.6-600.4-256.4-597.7-245-594.9z
		 M-297.8-635.6c-7,1.9-13.5,3.4-19.9,5.5c-6.2,2.1-8.9,8-7.3,14.4c1,3.9,2,7.7,3.1,11.5c1.7,6.2,6.4,9.9,12.8,8.8
		c7-1.2,13.9-3.4,21.1-5.2C-291.3-612.4-294.5-623.7-297.8-635.6z M-205.6-571.9c0,17.6,0,34.9,0,52.2c6.5,0,12.8,0,19.2,0
		c0-17.6,0-34.8,0-52.2C-192.8-571.9-199-571.9-205.6-571.9z M-252.4-680.8c-3.8,0.1-5.5,2.8-4.4,6.8c5.9,22.1,11.8,44.2,17.8,66.4
		c1.8,6.6,3.5,13.2,5.4,19.8c0.7,2.7,2.7,4,5.4,3.3c2.8-0.7,4-2.8,3.3-5.7c-0.2-1-0.5-1.9-0.8-2.9c-3.4-12.6-6.7-25.2-10.1-37.9
		c-4-14.9-8-29.8-12-44.7C-248.5-678.5-249.5-680.8-252.4-680.8z M-231.5-649.6c2.4,9.1,4.8,18,7.2,27c5.6-3.2,8.1-9.4,6.7-15.6
		C-219.2-644.9-224.4-649.3-231.5-649.6z M-301.3-587.6c5.7,7.9,11.1,15.5,16.6,22.9c0.5,0.7,2,0.6,3.1,0.9c0-1.1,0.5-2.5,0-3.3
		c-4.5-7.4-9.2-14.8-13.8-22.3C-297.4-588.8-299.1-588.2-301.3-587.6z"/>
	<path class="st0" d="M-112.5-791.8c2,2.3,3.7,3.6,4.5,5.3c3,6.8,5.8,13.8,8.5,20.7c0.9,2.3,2.1,3.3,4.6,3.4
		c7.3,0.4,14.7,0.8,22,1.7c1.9,0.2,4.6,1.6,5.1,3.1c0.5,1.5-0.8,4.3-2.2,5.6c-5.3,4.9-10.8,9.6-16.5,14c-2.4,1.9-2.7,3.6-2,6.4
		c1.9,6.8,3.4,13.8,5.1,20.7c0.6,2.4,1,5.2-1.6,6.2c-1.7,0.7-4.4,0.3-6.1-0.7c-6.2-3.5-12.2-7.2-18.1-11.2c-2.6-1.8-4.5-1.5-7,0.1
		c-5.9,3.9-11.9,7.7-18.1,11.1c-1.7,0.9-4.7,1.3-6,0.4c-1.3-0.9-1.8-4-1.5-5.8c1.4-7.1,3.1-14.1,5.1-21c0.8-2.9,0-4.5-2.2-6.3
		c-5.5-4.5-11-9-16.2-13.8c-1.4-1.3-2.6-3.8-2.5-5.6c0.2-2.7,2.9-3.2,5.5-3.3c7.3-0.4,14.7-1.1,22-1.5c2.3-0.1,3.5-1.1,4.3-3.2
		c2.7-7,5.5-13.9,8.5-20.7C-116.4-788.1-114.6-789.5-112.5-791.8z M-142-752.5c4.4,3.8,8.1,7.1,12,10.1c3.2,2.4,4.2,5.1,3,9.1
		c-1.5,4.8-2.4,9.7-3.7,15.4c5.1-3.1,9.4-5.6,13.5-8.4c3.2-2.2,6-2.3,9.2-0.1c4.1,2.8,8.4,5.2,13.6,8.4c-1.4-5.8-2.2-10.7-3.7-15.4
		c-1.3-4-0.2-6.6,3-9c3.9-3,7.6-6.3,12-10.1c-6.2-0.5-11.5-1.1-16.8-1.3c-3.4-0.1-5.2-1.7-6.3-4.7c-1.9-5-4-9.9-6.3-15.4
		c-2.3,5.5-4.4,10.4-6.3,15.4c-1.1,3-2.9,4.6-6.3,4.7C-130.5-753.7-135.8-753-142-752.5z"/>
	<path class="st0" d="M-43.4-730.9c-2.3,0.7-4.2,1.3-6,1.8c-2.7,0.8-4.8-0.2-5.7-2.8c-0.9-2.6,0.3-4.7,2.9-5.6
		c5.5-1.9,11.1-3.7,16.7-5.5c2.7-0.9,4.8,0.2,5.7,2.8c2,5.6,3.9,11.3,5.7,17c0.8,2.7-0.4,4.7-3,5.6c-2.5,0.8-4.4-0.5-5.4-2.8
		c-0.8-1.9-1.4-3.9-2.3-6.5c-1,1.6-1.7,2.7-2.3,3.8c-12.2,21.5-27.1,40.7-47.5,55c-20.8,14.6-44.2,21.3-69.4,22.7
		c-3.6,0.2-5.9-1.5-5.8-4.2c0.1-3.2,2.1-4.6,5.1-4.7c44.8-2.2,78-23.8,102.1-60.7c2.9-4.5,5.6-9.1,8.4-13.7
		C-44.1-729.4-43.9-729.9-43.4-730.9z"/>
	<path class="st0" d="M-168.9-755.5c-0.5,0.8-1.2,2.2-2.2,3.1c-2.5,2.3-5.3,4.2-7.6,6.7c-1,1-1.6,3-1.4,4.4c0.4,3.2,1.8,6.3,2.1,9.5
		c0.2,1.8-0.3,4.6-1.6,5.5c-1.3,0.9-4,0.4-5.7-0.3c-2.7-1.2-5.2-2.9-7.6-4.7c-2.2-1.6-3.9-1.4-5.9,0.1c-2.3,1.7-4.7,3.4-7.3,4.4
		c-1.8,0.7-4.8,1.2-6,0.3c-1.3-1-1.6-3.9-1.4-5.9c0.3-3.1,1.6-6,2-9.1c0.2-1.3-0.4-3.1-1.3-4c-2.3-2.4-5.3-4.2-7.5-6.7
		c-1.2-1.4-2.2-3.8-1.8-5.4c0.4-1.3,2.8-2.4,4.5-3c2-0.6,4.2-0.8,6.3-0.6c5.3,0.7,7.5-2.1,8.8-6.7c0.6-2.1,1.4-4.3,2.6-6.1
		c0.9-1.3,2.6-2.8,3.9-2.7c1.5,0.1,3.5,1.5,4.2,2.9c1.7,3,2.9,6.3,4,9.6c0.7,2.1,1.9,2.8,4.1,2.8c3.4,0,6.7,0.4,10.1,0.7
		C-170.8-760.5-169.3-759-168.9-755.5z M-202.2-740.1c4.4-3.8,8.6-3.3,13,0.1c-2.3-5.4-0.7-9.3,4-12.4c-5.9,0.3-9.2-2.1-10.5-7.8
		c-1.4,5.5-4.8,8.2-10.6,7.9C-201.5-749.3-200.3-745.4-202.2-740.1z"/>
	<path class="st0" d="M-233.3-755.4c-0.5,0.7-1.3,2.2-2.4,3.2c-2.5,2.3-5.2,4.3-7.6,6.6c-0.9,0.9-1.4,2.6-1.2,3.8
		c0.6,3.4,1.9,6.7,2.3,10.2c0.2,1.7-0.5,4.1-1.7,5.1c-1,0.9-3.5,0.5-5.1,0c-1.6-0.5-3.2-1.5-4.4-2.7c-4.6-4.3-9-4-13.6,0.1
		c-1.2,1.1-2.6,2.1-4.1,2.5c-1.8,0.4-4.2,0.8-5.4-0.1c-1.2-0.9-1.8-3.5-1.6-5.2c0.4-3.3,1.7-6.5,2.2-9.8c0.2-1.3-0.4-3.1-1.3-4.1
		c-2.3-2.4-5.3-4.2-7.5-6.7c-1.2-1.4-2.2-3.8-1.8-5.4c0.4-1.3,2.8-2.4,4.5-2.9c2.1-0.6,4.5-0.8,6.7-0.6c4.7,0.5,7.1-1.6,8.1-6
		c0.5-2,1.2-4.1,2.4-5.8c1.1-1.6,3-3.8,4.4-3.7c1.7,0.1,3.7,2.1,4.7,3.8c1.6,2.8,2.4,6,3.9,8.9c0.6,1.1,2.2,2.2,3.5,2.4
		c3.4,0.5,6.9,0.6,10.4,0.9C-235.2-760.5-233.5-759.1-233.3-755.4z M-270.7-752.3c5.5,2.8,5.6,7.2,4.2,12.3c4.4-4,8.5-3.3,13.1-0.1
		c-2.9-5.6-0.5-9.2,3.8-12.3c-6,0.5-9.1-2.3-10.5-7.8C-261.6-754.8-264.7-752-270.7-752.3z"/>
	<path class="st0" d="M-192.6-663.7c-0.4,1.3-0.4,2.3-0.8,2.7c-3.4,3.5-6.7,7-10.4,10.1c-0.9,0.7-4,0.2-4.8-0.8
		c-1-1.2-1.5-4.2-0.7-5.2c2.8-3.6,6.2-6.8,9.6-9.8c0.9-0.8,3.2-0.8,4.5-0.2C-194-666.4-193.3-664.6-192.6-663.7z"/>
	<path class="st0" d="M-182.6-644.1c-0.7,0.7-1.7,2.5-3.1,3c-3.7,1.4-7.6,2.2-11.5,3.2c-2.6,0.6-4.8-0.3-5.6-3
		c-0.8-2.9,0.6-4.8,3.5-5.6c3.7-1,7.4-2.1,11.1-2.9C-184.9-650.2-182.5-648.2-182.6-644.1z"/>
	<path class="st0" d="M-199-632.6c5.3,1.5,9.8,2.4,14,4.2c1.3,0.5,2.3,3.6,2,5.2c-0.3,1.3-3,3.1-4.4,2.8c-4.4-0.7-8.8-1.9-12.9-3.6
		c-1.3-0.5-2.4-3.4-2.2-5.1C-202.3-630.4-200.1-631.5-199-632.6z"/>
	<path class="st0" d="M-60.6-818.4c-16.3,0-32.7,0.1-49,0c-6.3,0-11.3-3.9-13.3-9.7c-1.9-5.6-0.2-12.1,4.7-15.3
		c2.7-1.8,6.2-3.1,9.3-3.1c32.2-0.2,64.3-0.2,96.5-0.1c8.5,0,14.7,6.1,14.7,14.2c0,8.1-6.1,14.1-14.7,14.1
		C-28.4-818.4-44.5-818.4-60.6-818.4C-60.6-818.4-60.6-818.4-60.6-818.4z M-60.8-827.4c6.1,0,12.2,0,18.3,0c10,0,19.9,0,29.9,0
		c3.9,0,6-1.9,6-5.1c0-3.2-2.2-5-6-5.2c-0.4,0-0.7,0-1.1,0c-31.3,0-62.5,0-93.8,0c-1.2,0-2.5,0-3.7,0.5c-2.9,1.1-3.9,3.5-3,6.3
		c1,3,3.4,3.5,6.3,3.5C-92.2-827.4-76.5-827.4-60.8-827.4z"/>
	<path class="st0" d="M-257-832.6c0,7.3-6.1,13.4-13.4,13.3c-7.3,0-13.3-6.1-13.2-13.4c0.1-7.2,6-13,13.2-13.1
		C-263.2-845.9-257-839.9-257-832.6z M-265.5-831.6c0-0.6,0-1.2,0.1-1.8c-1.6-1.1-3.1-2.9-4.8-3.3c-2.5-0.5-4.2,1.4-4.3,4
		c-0.1,2.6,1.6,4.5,4.1,4.2C-268.7-828.7-267.1-830.5-265.5-831.6z"/>
	<path class="st0" d="M-235.9-845.8c7.3-0.1,13.4,5.9,13.5,13.2c0,7.1-5.8,13.2-13,13.4c-7.3,0.2-13.5-5.7-13.7-13
		C-249.2-839.5-243.2-845.7-235.9-845.8z M-234.9-837.4c-0.6,0-1.2,0-1.8,0c-1.1,1.6-2.9,3.2-3.1,4.9c-0.3,2.4,1.6,4.2,4.2,4.1
		c2.6-0.1,4.5-1.8,4-4.3C-231.9-834.3-233.8-835.8-234.9-837.4z"/>
	<path class="st0" d="M-187.8-832.6c0,7.3-6,13.4-13.3,13.3c-7.3,0-13.2-6.1-13.2-13.4c0.1-7.3,5.8-13.1,13.1-13.1
		C-193.9-845.9-187.9-839.9-187.8-832.6z M-205.9-833.4c0,0.6,0,1.2,0,1.8c1.6,1.1,3.1,3,4.9,3.2c2.5,0.4,4.2-1.5,4.2-4.1
		c0-2.6-1.7-4.5-4.2-4.1C-202.8-836.3-204.3-834.6-205.9-833.4z"/>
	<path class="st0" d="M-38.1-632c15.9,0.1,29,13.3,28.9,29.2c-0.1,16-13.3,29-29.2,29c-16.1,0-29.1-13.2-29-29.4
		C-67.2-619.3-54.2-632.1-38.1-632z M-58.4-603.1c0,11.2,9.1,20.3,20.1,20.2c11-0.1,20-9.1,20-20c0.1-10.9-8.9-20.1-19.8-20.2
		C-49.3-623.2-58.3-614.3-58.4-603.1z"/>
</g>
<g>
	<path class="st0" d="M-572-482c-0.7-0.8-1.6-1.5-2.2-2.4c-2.6-3.6-0.3-8.4,4.3-8.8c3-0.2,6-0.1,9-0.1c34.8,0,69.6,0,104.4,0
		c8.8,0,12.4-3.7,12.4-12.6c0-112.1,0-224.2,0-336.3c0-8.9-3.6-12.6-12.4-12.6c-106.4,0-212.8,0-319.2,0c-8.9,0-12.6,3.6-12.6,12.4
		c0,112.2,0,224.5,0,336.7c0,8.6,3.7,12.4,12.2,12.4c58.3,0,116.5,0,174.8,0c1,0,2,0,3,0c3.1-0.2,6.1,0.2,7.5,3.6
		c1.4,3.4-0.6,5.6-2.9,7.7c-62.9,0-125.8,0-188.6,0c-13.2-4.3-17.3-13.7-17.3-27c0.3-110.6,0.1-221.2,0.1-331.8c0-1.2,0-2.5,0-3.7
		c0.2-9.8,5.9-17.4,15.2-20.6c0.7-0.2,1.3-0.6,2-0.9c110.8,0,221.6,0,332.4,0c13,4.2,17.3,13.4,17.3,26.7
		c-0.2,110.7-0.1,221.4-0.1,332.2c0,1.5,0.1,3,0,4.5c-0.5,7.9-4.1,14-11,18c-1.9,1.1-4,1.8-6.1,2.7C-490.6-482-531.3-482-572-482z"
		/>
	<path class="st0" d="M-465.4-673.8c0,44.9,0,89.7,0,134.6c0,11.5-5.7,19.7-15.7,22.3c-2.6,0.7-5.4,0.8-8.1,0.8
		c-84.6,0-169.2,0-253.7,0c-12.2,0-20.6-5.7-23.2-16.1c-0.6-2.3-0.7-4.7-0.7-7.1c0-89.9,0-179.7,0-269.6c0-14.4,8.6-23.1,23.1-23.1
		c85.1,0,170.2,0,255.2,0c14.7,0,23.1,8.7,23.1,23.5C-465.4-763.6-465.4-718.7-465.4-673.8z M-476.6-673.7c0-44.4,0-88.7,0-133.1
		c0-1.4,0-2.8-0.1-4.1c-0.4-5.5-3.7-8.9-9.2-9.6c-1.4-0.2-2.7-0.2-4.1-0.2c-84.1,0-168.2,0-252.2,0c-1.4,0-2.7,0-4.1,0.2
		c-5.5,0.6-8.8,4.1-9.2,9.6c-0.1,1.1-0.1,2.2-0.1,3.4c0,89.1,0,178.2,0,267.3c0,1.4,0,2.8,0.1,4.1c0.5,4.3,3.6,7.7,7.8,8.4
		c1.7,0.3,3.5,0.4,5.2,0.4c84.2,0,168.4,0,252.6,0c10,0,13.2-3.3,13.2-13.3C-476.6-585-476.6-629.4-476.6-673.7z"/>
	<path class="st0" d="M-549.8-622.5c-2.4-0.9-4.8-1.9-7.1-2.8c-10.6-4-21.1-8.4-30-15.7c-17.4-14.3-17.8-40.7-0.7-55.5
		c18.5-16,51.2-18.1,71-4.5c7.3,5.1,12.5,11.5,12.1,21.1c-0.4,13.2-12,21.7-24.6,18.1c-3.2-0.9-6.2-2.7-9.4-3.6
		c-3.5-1.1-7.2-1.7-10.8-2.5c-0.1,0.5-0.3,1-0.4,1.5c3.8,1.5,7.5,3,11.3,4.4c9.1,3.4,17.4,8.2,23.6,15.9c15,18.8,9.6,45.4-12,58.3
		c-16.2,9.7-33.4,10.1-50.8,3.8c-6.1-2.2-12.3-5.2-17.5-9c-11.1-8.2-12.5-22.3-3.9-31.4c7.3-7.8,19-8.5,28.9-1.3
		C-563.9-621.2-557.4-619.5-549.8-622.5z M-555-591.1c8.7-0.1,17.4-2.4,25-8c16.7-12.2,16.6-34.3-0.3-46.2c-3.2-2.3-6.9-4-10.5-5.5
		c-7.1-3.1-14.3-5.8-21.4-8.8c-5.1-2.1-6.3-7.4-2.8-11.6c0.9-1.1,2.2-2.1,3.4-2.9c8.1-5.5,16.7-5.9,25.7-2.5
		c3.1,1.2,6.2,2.7,9.3,3.8c3.3,1.1,6.5,1,8.8-2c2.4-3,3.1-6.6,1.2-9.8c-1.6-2.7-3.9-5.3-6.4-7.1c-15.7-10.9-42.9-9.3-57,3.6
		c-3.3,3-6.1,7.1-7.5,11.3c-4,11.6,0.1,22.7,11.4,29.6c7.9,4.8,16.8,8.1,25.2,12.1c3.7,1.8,7.7,3.1,10.9,5.5
		c5.7,4.1,5.6,10.8,0.1,15.2c-1.8,1.4-4,2.6-6.2,3.2c-10.1,3-19.7,1.8-28.5-4.2c-1.9-1.3-4-2.7-6.1-3.5c-4.3-1.6-8.3-0.3-10.6,3.1
		c-2.3,3.3-2.3,7.8,0.5,11.1c1.8,2,3.9,3.9,6.3,5.2C-575.7-594.1-566-591.3-555-591.1z"/>
	<path class="st0" d="M-686.6-644.3c0,12.9,0,25.3,0,37.6c0,2.9,0,5.8-0.4,8.6c-1.7,10.7-10.8,17.8-21.9,17.2
		c-10.1-0.6-18.6-9-18.7-19.4c-0.3-20.1-0.1-40.2-0.1-60.4c0-3.9,2.3-6.2,5.5-6.2c3.2,0,5.6,2.4,5.6,6.2c0.1,10.5,0.1,21,0.1,31.5
		c0,8.9,0,17.7,0,26.6c0.1,6.4,3.6,10.4,9.2,10.5c5.7,0.1,9.5-4,9.6-10.6c0.1-15,0-30,0-45c0-6.2,1.6-7.8,7.7-7.8
		c8.4-0.1,16.7,0,25.1-0.2c28.5-0.9,50.6-24.4,49.7-52.6c-0.9-25.9-22.2-47.1-49.4-48.4c-13.9-0.7-27.9-0.3-41.9-0.1
		c-6.6,0.1-9.9,3.8-9.9,10.5c-0.1,18.6,0,37.2,0,55.9c0,1.5,0,3-0.4,4.5c-0.7,2.8-2.8,4.1-5.6,3.9c-2.9-0.2-4.6-1.8-5.1-4.6
		c-0.2-1.2-0.1-2.5-0.1-3.7c0-18.2,0-36.5,0-54.7c0-14.7,8.2-23,22.9-23c14.6,0,29.2-0.4,43.8,0.5c30.1,1.9,54.7,27,56.9,57.3
		c2.2,29.5-18.5,57.9-47.7,64c-9.9,2.1-20.3,1.5-30.5,2.1C-683.6-644.3-684.9-644.3-686.6-644.3z"/>
	<path class="st0" d="M-697.8-706.3c0-8.4,0-16.7,0-25.1c0-4.5,1.8-6.6,6.2-6.6c9.3-0.1,18.7-0.3,28,0.3
		c14.1,0.8,26.4,12.4,28.8,26.3c3,17.7-10.4,35.4-28.4,36.7c-9.4,0.6-18.9,0.4-28.4,0.4c-4.1,0-6.1-2.2-6.1-6.4
		C-697.8-689.3-697.7-697.8-697.8-706.3C-697.8-706.3-697.8-706.3-697.8-706.3z M-686.4-685.9c7.1,0,14.1,0.2,21-0.1
		c10.5-0.4,19.2-9,19.9-19.3c0.7-9.5-6.7-19.6-16.6-20.9c-7.9-1-16.1-0.2-24.3-0.2C-686.4-713-686.4-699.6-686.4-685.9z"/>
</g>
</svg>
