<?xml version="1.0" encoding="utf-8"?>
<!-- Generator: Adobe Illustrator 27.0.0, SVG Export Plug-In . SVG Version: 6.00 Build 0)  -->
<svg version="1.1" id="Layer_1" xmlns="http://www.w3.org/2000/svg" xmlns:xlink="http://www.w3.org/1999/xlink" x="0px" y="0px"
	 viewBox="0 0 600 600" style="enable-background:new 0 0 600 600;" xml:space="preserve">
<style type="text/css">
	.st0{fill:#1A9C00;}
</style>
<g>
	<path class="st0" d="M-730.2-41c-0.3-0.2-0.6-0.4-1-0.5c-10.1-2.4-14.8-8.2-14.8-18.6c0-37.1,0-74.2,0-111.3c0-6,0.1-12-0.1-18
		c0-1.2-1-2.8-2-3.4c-11.3-6.7-14.9-17.9-9.1-29.8c8.1-16.7,16.3-33.4,24.4-50.1c0.6-1.2,1.1-2.5,1.9-4.2c-5.2-1.7-10.2-3.3-15.2-5
		c-5.4-1.8-6.3-3-6.3-8.7c0-8.1,0-16.2,0-24.4c0-5.5,1-6.7,6.1-8.4c4.7-1.6,9.5-2.9,14.2-4.8c1.4-0.6,2.9-2.1,3.6-3.5
		c3-6.7,5.8-13.5,8.4-20.3c0.6-1.5,0.7-3.6,0-5c-2.2-4.9-4.7-9.6-7.2-14.4c-1.7-3.2-1.2-5.9,1.3-8.5c6.3-6.2,12.6-12.5,18.8-18.8
		c2.8-2.9,5.7-3.1,9.1-1.3c4.6,2.4,9.2,4.9,14,7.1c1.3,0.6,3.3,0.6,4.7,0c6.9-2.7,13.8-5.6,20.6-8.6c1.4-0.6,2.8-2,3.3-3.3
		c1.7-4.4,2.9-9,4.6-13.5c0.9-2.4,2.4-4.5,3.7-6.7c11.5,0,23,0,34.4,0c1.7,3.8,4.3,7.4,5.1,11.4c1.7,8.2,5.4,13.4,14.2,15
		c4.3,0.8,8.3,3.3,12.2,5.5c2.3,1.3,4,1.2,6.2,0c4.5-2.5,9.1-4.7,13.6-7c3.3-1.7,6.1-1.3,8.8,1.4c6.1,6.2,12.3,12.4,18.5,18.6
		c2.8,2.8,3.3,5.7,1.5,9.1c-2.4,4.6-4.9,9.2-7.1,14c-0.6,1.4-0.6,3.6,0,5.1c2.6,6.9,5.4,13.6,8.4,20.3c0.6,1.5,2.1,3,3.6,3.6
		c4.9,1.9,9.9,3.5,14.9,5c3.8,1.1,5.4,3.6,5.4,7.5c-0.1,8.7,0,17.5,0,26.2c0,3.7-1.6,6.1-5.2,7.2c-5.3,1.6-10.6,3.5-16.3,5.3
		c0.7,1.5,1.2,2.8,1.9,4.1c8,16.4,16,32.7,23.9,49.1c6.3,13,3.3,23.3-8.9,31c-0.9,0.6-1.6,2.4-1.7,3.6c-0.1,8-0.1,16-0.1,24
		c0,34,0,68,0,101.9c0,13.8-2.9,17.8-15.8,22.1C-596.4-41-663.3-41-730.2-41z M-536-196.2c-10.5,7.8-20.9,7.4-31.2-0.2
		c-10.6,7.9-21.1,7.7-31.4,0c-10.6,7.8-21.1,7.7-31.4,0c-10.6,7.8-21,7.7-31.4,0c-10.5,7.8-21,7.7-31.3,0c-10.5,7.6-20.9,7.9-31.3,0
		c-2.2,1.3-4.2,3-6.5,3.7c-2.9,0.9-3.6,2.5-3.6,5.4c0.1,42,0.1,84,0.1,126c0,6.6,1.4,8,7.8,8c15.1,0,30.2,0,45.3,0c1.2,0,2.4,0,4,0
		c0-1.8,0-3.2,0-4.5c0.2-23,0.4-46,0.7-69c0.4-25.2,21-45.9,45.8-46.1c25.7-0.3,46.9,20.5,46.9,46.4c0,23-0.4,46-0.6,69
		c0,1.3,0,2.6,0,4.3c1.6,0,2.7,0,3.8,0c15.6,0,31.2,0,46.8,0c6.5,0,7.9-1.4,7.9-7.9c0-35.4,0-70.7,0-106.1c0-7.1,0.1-14.2-0.1-21.4
		c0-1.1-0.8-2.5-1.7-3.1C-530.2-193.4-533-194.7-536-196.2z M-629.6-295.1c-23.4,0-46.9,0.1-70.3-0.1c-6,0-9.7,2.2-12.3,7.7
		c-11,23.1-22.3,46-33.5,69c-0.5,1-1,2-1.4,3.1c-1.6,4.2-0.1,8.8,3.5,11.2c3.3,2.3,7.7,2,11-0.9c1.5-1.3,2.7-2.9,4.2-4.3
		c2.6-2.5,5.7-2.6,8.4-0.3c1,0.9,2,1.9,2.9,2.9c5.8,5.8,12.2,5.7,17.9-0.3c5.5-5.8,7.5-5.8,13.1-0.1c6.1,6.2,12.3,6.2,18.4,0
		c5.6-5.7,7.5-5.7,13.1,0.2c5.7,5.9,12.2,6,17.9,0.2c0.8-0.8,1.5-1.7,2.3-2.4c3-2.7,6-2.8,9-0.1c1.4,1.3,2.6,2.7,4,4
		c4.1,3.7,10.5,3.6,14.7-0.1c1.2-1.1,2.3-2.3,3.4-3.5c3.3-3.3,6.3-3.3,9.7,0c1.3,1.2,2.4,2.5,3.7,3.7c4,3.5,10.4,3.4,14.4-0.1
		c1.2-1.1,2.3-2.3,3.5-3.4c3.7-3.6,6.7-3.5,10.3,0.2c7.8,8.1,12.7,8.2,20.8,0.2c0.4-0.3,0.7-0.7,1.1-1.1c3.2-2.8,6.3-2.6,9.2,0.4
		c1.3,1.3,2.5,2.8,3.9,4c2.8,2.3,6,2.9,9.4,1.5c3.4-1.5,5.4-4.3,5.5-7.9c0.1-2.2-0.8-4.7-1.8-6.7c-11.2-23.2-22.7-46.4-33.8-69.7
		c-2.6-5.3-6.3-7.4-12.1-7.4C-583-295-606.3-295.1-629.6-295.1z M-544.7-373.9c-4.2-4.2-8.3-8-12.1-12.1c-1.7-1.8-2.9-1.6-4.8-0.6
		c-4.4,2.4-8.9,4.5-13.3,6.8c-2.6,1.4-5,1.3-7.4-0.2c-8.2-5.1-17-8.8-26.4-11c-3-0.7-4.8-2.4-5.6-5.3c-1.5-4.8-3.2-9.5-4.6-14.2
		c-0.6-2.1-1.6-2.7-3.7-2.7c-4.7,0.1-9.5,0.1-14.2,0c-2.2-0.1-3.4,0.5-4,2.8c-1.3,4.7-3,9.2-4.4,13.9c-0.9,3.1-2.7,4.9-5.9,5.6
		c-9.3,2.2-18,5.8-26.1,10.9c-2.7,1.7-5.3,1.6-8.1,0.1c-4.3-2.3-8.7-4.4-12.9-6.7c-1.8-1-3-1.1-4.5,0.6c-3.4,3.7-7.1,7-10.5,10.7
		c-0.7,0.8-1,2.7-0.6,3.7c2,4.5,4.4,9,6.7,13.4c1.5,2.9,1.2,5.5-0.1,8.5c-3.8,8.5-7.4,17.1-10.7,25.8c-1.1,3-2.5,5-5.6,5.9
		c-4.9,1.5-9.7,3.1-14.5,4.9c-1,0.4-2.2,1.8-2.2,2.7c-0.2,5.2-0.2,10.5,0,15.7c0,0.9,0.7,2.3,1.5,2.5c4.4,1.6,8.9,3,13.4,4.4
		c1.2-2.5,2.3-4.6,3.3-6.7c4-8.2,10.7-12.3,19.7-12.5c3.6-0.1,7.2-0.2,10.8,0c2.7,0.2,3.7-0.7,4-3.4c3.4-27.9,27-49.4,55.4-50.6
		c27.9-1.2,53.4,18.5,59.2,45.7c0.6,2.7,1,5.3,1.6,8.7c16.5-2,31.4-0.4,36.6,19c4.9-1.6,9.2-2.8,13.3-4.5c1-0.4,1.9-2.1,2-3.3
		c0.2-4.7,0-9.5,0.1-14.2c0.1-2.2-0.6-3.4-2.8-4c-4.4-1.2-8.7-2.9-13.2-4.2c-3.6-1-5.3-3.2-6.6-6.8c-3.1-8.5-6.6-16.9-10.4-25.1
		c-1.5-3.2-1.8-5.8-0.2-8.8C-549.9-363.4-547.4-368.5-544.7-373.9z M-596.4-53.5c0.1-0.7,0.2-1,0.2-1.4c0.2-24.1,0.6-48.2,0.6-72.3
		c0-4.4-1.2-9-2.9-13c-6.3-14.9-22.4-23.1-38.3-20c-15.6,3.1-27.2,17.2-27.5,33.9c-0.3,23-0.5,45.9-0.7,68.9c0,1.2,0,2.4,0,3.9
		C-641.9-53.5-619.3-53.5-596.4-53.5z M-584-307.3c-1.1-23.4-23.6-42.9-47.9-41.8c-23,1-44.6,21.7-43.6,41.8
		C-645.1-307.3-614.7-307.3-584-307.3z"/>
</g>
<g>
	<path class="st0" d="M352.1,526.6c-0.9-0.9-1.9-1.8-2.6-2.9c-3.1-4.3-0.3-10,5.1-10.3c3.5-0.3,7.1-0.1,10.6-0.1
		c41.1,0,82.1,0,123.2,0c10.4,0,14.7-4.3,14.7-14.8c0-132.3,0-264.6,0-396.9c0-10.5-4.3-14.9-14.6-14.9c-125.6,0-251.1,0-376.7,0
		c-10.5,0-14.8,4.2-14.8,14.7c0,132.4,0,264.9,0,397.3c0,10.2,4.4,14.6,14.5,14.6c68.7,0,137.5,0,206.2,0c1.2,0,2.4,0,3.5,0
		c3.7-0.2,7.2,0.2,8.8,4.2c1.6,4-0.7,6.7-3.5,9.1c-74.2,0-148.4,0-222.6,0c-15.5-5-20.4-16.2-20.4-31.9c0.3-130.5,0.2-261,0.2-391.5
		c0-1.5,0-3,0-4.4c0.3-11.5,7-20.6,17.9-24.3c0.8-0.3,1.6-0.7,2.3-1c130.7,0,261.5,0,392.2,0c15.3,5,20.4,15.9,20.4,31.5
		c-0.3,130.7-0.2,261.3-0.2,392c0,1.8,0.1,3.5,0,5.3c-0.6,9.4-4.8,16.6-13,21.2c-2.3,1.3-4.8,2.1-7.2,3.2
		C448.1,526.6,400.1,526.6,352.1,526.6z"/>
	<path class="st0" d="M477.8,300.2c0,53,0,105.9,0,158.9c0,13.5-6.8,23.2-18.5,26.3c-3.1,0.8-6.4,1-9.6,1c-99.8,0-199.6,0-299.4,0
		c-14.4,0-24.3-6.8-27.3-19c-0.7-2.7-0.8-5.5-0.8-8.3c0-106,0-212.1,0-318.1c0-17.1,10.1-27.3,27.2-27.3
		c100.4-0.1,200.8-0.1,301.2,0c17.3,0,27.2,10.2,27.2,27.7C477.9,194.3,477.8,247.3,477.8,300.2z M464.6,300.3
		c0-52.4,0-104.7,0-157.1c0-1.6,0-3.2-0.1-4.9c-0.4-6.4-4.4-10.5-10.8-11.3c-1.6-0.2-3.2-0.2-4.8-0.2c-99.2,0-198.4,0-297.6,0
		c-1.6,0-3.2,0-4.8,0.2c-6.5,0.7-10.4,4.9-10.8,11.3c-0.1,1.3-0.1,2.7-0.1,4c0,105.2,0,210.3,0,315.5c0,1.6,0,3.3,0.2,4.9
		c0.6,5.1,4.2,9.1,9.2,9.9c2,0.4,4.1,0.4,6.2,0.4c99.4,0,198.7,0,298.1,0c11.8,0,15.5-3.8,15.5-15.7
		C464.6,405,464.6,352.7,464.6,300.3z"/>
	<path class="st0" d="M378.3,360.8c-2.8-1.1-5.6-2.2-8.4-3.3c-12.5-4.8-24.9-9.9-35.4-18.5c-20.5-16.9-20.9-48.1-0.8-65.5
		c21.9-18.9,60.5-21.4,83.8-5.3c8.6,6,14.7,13.6,14.3,24.9c-0.5,15.5-14.1,25.7-29,21.4c-3.8-1.1-7.3-3.1-11.1-4.3
		c-4.2-1.3-8.5-2-12.8-2.9c-0.2,0.6-0.3,1.1-0.5,1.7c4.4,1.7,8.9,3.5,13.3,5.2c10.8,4,20.5,9.6,27.8,18.8
		c17.7,22.2,11.3,53.6-14.2,68.8c-19.1,11.4-39.4,11.9-59.9,4.5c-7.2-2.6-14.5-6.1-20.6-10.7c-13.1-9.7-14.8-26.3-4.7-37.1
		c8.7-9.3,22.4-10.1,34.1-1.6C361.7,362.3,369.3,364.3,378.3,360.8z M372.2,397.8c10.3-0.1,20.6-2.8,29.5-9.4
		c19.7-14.4,19.6-40.5-0.3-54.5c-3.8-2.7-8.1-4.7-12.4-6.5c-8.4-3.6-16.9-6.8-25.3-10.3c-6-2.5-7.4-8.7-3.3-13.7
		c1.1-1.3,2.5-2.5,4-3.4c9.5-6.5,19.7-6.9,30.3-2.9c3.7,1.4,7.3,3.2,11,4.5c3.8,1.3,7.6,1.2,10.4-2.4c2.8-3.5,3.7-7.7,1.4-11.6
		c-1.9-3.2-4.6-6.2-7.6-8.3c-18.5-12.8-50.6-10.9-67.3,4.2c-3.9,3.5-7.2,8.4-8.9,13.3c-4.8,13.7,0.1,26.8,13.4,34.9
		c9.4,5.7,19.8,9.6,29.7,14.3c4.4,2.1,9.1,3.7,12.9,6.5c6.7,4.8,6.6,12.8,0.1,17.9c-2.1,1.7-4.8,3-7.4,3.8
		c-11.9,3.6-23.2,2.2-33.7-4.9c-2.3-1.6-4.7-3.1-7.3-4.1c-5-1.9-9.8-0.3-12.6,3.6c-2.8,3.9-2.7,9.1,0.6,13.1
		c2.1,2.4,4.6,4.6,7.4,6.2C347.7,394.3,359.2,397.6,372.2,397.8z"/>
	<path class="st0" d="M216.8,335c0,15.3,0,29.8,0,44.4c0,3.4,0,6.8-0.5,10.1c-2,12.7-12.8,21-25.9,20.3
		c-11.9-0.7-21.9-10.6-22.1-22.9c-0.3-23.7-0.2-47.5-0.1-71.2c0-4.5,2.7-7.3,6.5-7.4c3.8,0,6.6,2.8,6.7,7.3
		c0.1,12.4,0.1,24.8,0.1,37.2c0,10.5-0.1,20.9,0,31.4c0.1,7.6,4.3,12.3,10.9,12.4c6.7,0.1,11.2-4.8,11.3-12.5
		c0.1-17.7,0-35.4,0-53.1c0-7.3,1.9-9.2,9.1-9.2c9.9-0.1,19.7,0,29.6-0.3c33.6-1.1,59.7-28.8,58.6-62.1c-1-30.5-26.2-55.6-58.3-57.1
		c-16.4-0.8-33-0.3-49.4-0.2c-7.7,0.1-11.7,4.5-11.7,12.4c-0.1,22,0,43.9,0,65.9c0,1.8,0,3.6-0.5,5.3c-0.9,3.3-3.3,4.8-6.6,4.6
		c-3.4-0.2-5.4-2.1-6-5.4c-0.2-1.4-0.2-2.9-0.2-4.4c0-21.5,0-43.1,0-64.6c0-17.4,9.7-27.1,27.1-27.1c17.2,0,34.5-0.5,51.6,0.6
		c35.5,2.2,64.6,31.9,67.2,67.6c2.5,34.9-21.8,68.3-56.2,75.5c-11.7,2.4-24,1.8-36,2.5C220.3,335.1,218.9,335,216.8,335z"/>
	<path class="st0" d="M203.6,261.9c0-9.9,0-19.8,0-29.6c0-5.3,2.2-7.8,7.3-7.8c11-0.1,22.1-0.3,33.1,0.3c16.6,0.9,31.2,14.6,34,31
		c3.6,20.9-12.3,41.8-33.5,43.3c-11.1,0.8-22.4,0.5-33.5,0.4c-4.9,0-7.2-2.6-7.3-7.5c-0.1-10,0-20,0-30.1
		C203.7,261.9,203.6,261.9,203.6,261.9z M217.1,286c8.4,0,16.6,0.3,24.8-0.1c12.4-0.5,22.6-10.6,23.5-22.7
		c0.8-11.2-7.9-23.1-19.6-24.7c-9.3-1.2-18.9-0.2-28.7-0.2C217.1,254,217.1,269.8,217.1,286z"/>
</g>
</svg>
